<svg width="24.000000" height="24.000000" viewBox="0 0 24 24" fill="none" xmlns="http://www.w3.org/2000/svg" xmlns:xlink="http://www.w3.org/1999/xlink">
	<desc>
			Created with Pixso.
	</desc>
	<defs>
		<clipPath id="clip1078_6583">
			<rect id="moon" width="24.000000" height="24.000000" fill="white" fill-opacity="0"/>
		</clipPath>
	</defs>
	<g clip-path="url(#clip1078_6583)">
		<path id="coolicon" d="M18.248 16.9971C18.1655 16.999 18.0829 16.9998 18 16.9998C11.9249 16.9998 7 12.075 7 5.99976C7 5.91699 7.00098 5.83423 7.00281 5.75171C5.17212 7.21851 4 9.47339 4 11.9998C4 16.4182 7.58167 19.9998 12 19.9998C14.5266 19.9998 16.7814 18.8276 18.248 16.9971ZM19.4661 14.8811C18.989 14.9592 18.4993 14.9998 18 14.9998C13.0294 14.9998 9 10.9705 9 5.99976C9 5.50073 9.04065 5.01074 9.11877 4.53369C9.25098 3.72729 9.49023 2.95703 9.82166 2.23779C8.96021 2.4292 8.14075 2.73169 7.37878 3.12939C4.18213 4.7981 2 8.14404 2 11.9998C2 17.5227 6.47717 21.9998 12 21.9998C15.8557 21.9998 19.2018 19.8176 20.8705 16.6211C21.2682 15.8591 21.5707 15.0396 21.7621 14.1782C21.0428 14.5095 20.2725 14.749 19.4661 14.8811Z" fill="#3F51B5" fill-opacity="1.000000" fill-rule="evenodd"/>
	</g>
</svg>
