<svg width="966.000000" height="175.274414" viewBox="0 0 966 175.274" fill="none" xmlns="http://www.w3.org/2000/svg" xmlns:xlink="http://www.w3.org/1999/xlink">
	<desc>
			Created with Pixso.
	</desc>
	<defs/>
	<rect id="Rectangle 502" rx="11.950516" width="966.000000" height="175.274231" fill="#FF7F4D" fill-opacity="1.000000"/>
	<mask id="mask1078_6811" mask-type="alpha" maskUnits="userSpaceOnUse" x="0.000000" y="0.000122" width="966.000000" height="175.274292">
		<rect id="Rectangle 503" y="0.000122" rx="11.950516" width="966.000000" height="175.274231" fill="#EEF4FF" fill-opacity="1.000000"/>
	</mask>
	<g mask="url(#mask1078_6811)">
		<g opacity="0.500000">
			<path id="Vector 1" d="M867.005 162.622C800.324 264.603 660.351 136.649 692.228 249.553C724.105 362.458 576.809 321.955 572.079 238.922C567.349 155.888 657.353 200.437 655.873 155.244C654.393 110.052 588.914 79.6436 664.702 67.2402C740.49 54.837 718.1 1.40674 801.313 22.8173C845.438 35.4252 920.351 81.0372 867.005 162.622Z" stroke="#F4F4F4" stroke-opacity="1.000000" stroke-width="1.991753"/>
			<path id="Vector 4" d="M835.045 164.618C783.721 243.192 676.073 144.665 700.567 231.627C725.061 318.59 611.757 287.429 608.14 223.469C604.523 159.509 673.75 193.802 672.624 158.99C671.497 124.178 621.132 100.771 679.439 91.1973C737.745 81.6233 720.535 40.4713 784.544 56.9425C818.486 66.6429 876.104 101.759 835.045 164.618Z" stroke="#F4F4F4" stroke-opacity="1.000000" stroke-width="1.991753"/>
			<path id="Vector 2" d="M896.621 160.687C815.66 284.586 645.802 129.19 684.464 266.332C723.125 403.474 544.357 354.313 538.638 253.448C532.918 152.584 642.147 206.677 640.363 151.779C638.579 96.882 559.112 59.9608 651.102 44.8743C743.092 29.7877 715.931 -35.1111 816.924 -9.12415C870.476 6.17993 961.389 61.5677 896.621 160.687Z" stroke="#F4F4F4" stroke-opacity="1.000000" stroke-width="1.991753"/>
			<path id="Vector 3" d="M921.471 159.168C828.588 301.181 633.571 122.971 677.995 280.208C722.418 437.445 517.211 381.022 510.61 265.386C504.01 149.751 629.403 211.802 627.335 148.866C625.267 85.9296 534.043 43.5742 639.624 26.3109C745.205 9.04773 714.006 -65.3635 829.936 -35.5359C891.408 -17.972 995.777 45.558 921.471 159.168Z" stroke="#F4F4F4" stroke-opacity="1.000000" stroke-width="1.991753"/>
			<path id="Vector 5" d="M957.024 156.786C846.967 325.266 616.119 113.994 668.649 300.464C721.178 486.934 478.206 420.112 470.445 282.965C462.685 145.819 611.141 219.355 608.723 144.71C606.305 70.0646 498.301 19.8729 623.334 -0.653198C748.368 -21.1793 711.459 -109.42 848.724 -74.0988C921.51 -53.2969 1045.07 22.0029 957.024 156.786Z" stroke="#F4F4F4" stroke-opacity="1.000000" stroke-width="1.991753"/>
			<path id="Vector 6" d="M998.513 153.959C868.386 353.454 595.764 103.5 657.72 324.198C719.676 544.896 432.646 465.936 423.555 303.598C414.465 141.259 589.822 228.22 587.007 139.863C584.193 51.5054 456.616 -7.84583 604.353 -32.2144C752.09 -56.583 708.534 -161.014 870.69 -119.282C956.674 -94.7 1102.61 -5.63684 998.513 153.959Z" stroke="#F4F4F4" stroke-opacity="1.000000" stroke-width="1.991753"/>
		</g>
	</g>
	<g mask="url(#mask1078_6811)">
		<mask id="mask1078_6823" mask-type="alpha" maskUnits="userSpaceOnUse" x="780.000000" y="-2.861694" width="186.228760" height="178.131958">
			<rect id="Rectangle 468" x="780.000000" y="-2.861694" rx="9.716288" width="186.228867" height="178.131958" fill="#FF7F4D" fill-opacity="1.000000"/>
		</mask>
		<g mask="url(#mask1078_6823)">
			<path id="Vector" d="M960.709 225.863L956.009 211.234C956.009 211.234 925.857 209.89 925.608 212.02C925.358 214.149 932.834 231.843 934.826 231.843C936.819 231.843 960.709 225.863 960.709 225.863Z" fill="#0E6AC3" fill-opacity="1.000000" fill-rule="nonzero"/>
			<path id="Vector" d="M861.566 189.563C864.217 186.221 865.679 183.439 866.459 181.231L866.989 181.56C869.786 169.045 864.409 156.871 864.409 156.871L846.614 151.887C846.614 151.887 843.872 160.469 841.63 165.754C838.142 170.455 832.494 171.951 832.494 171.951L829.045 194.711C829.042 194.715 853.926 199.199 861.566 189.563Z" fill="#E54728" fill-opacity="1.000000" fill-rule="nonzero"/>
			<path id="Vector" d="M887.23 133.163C898.679 139.819 910.112 143.173 923.331 142.345L960.209 123.901C964.904 110.664 968.538 96.7781 967.88 82.7489C967.222 68.7197 961.79 54.4316 950.951 45.5023C945.836 41.2889 939.733 38.4009 934.655 34.1418C927.471 28.1158 922.454 19.4486 914.201 14.9946C901.11 7.92969 882.779 10.9305 876.506 24.7617C866.986 23.7655 855.33 33.1731 863.229 59.0197C865.393 66.0997 868.966 75.5165 867.793 82.8251C864.408 103.943 871.799 124.194 887.23 133.163Z" fill="#2E0031" fill-opacity="1.000000" fill-rule="nonzero"/>
			<path id="Vector" d="M970.852 129.092C966.522 97.954 940.81 92.5433 940.81 92.5433L887.98 94.4109C887.98 94.4109 874.774 94.9806 865.055 107.03C855.337 119.078 850.478 123.938 850.103 135.152C849.729 146.366 856.458 162.439 859.447 168.045C862.438 173.651 860.193 188.603 860.193 188.603C860.193 188.603 900.404 227.105 960.71 218.629C958.964 213.471 957.124 208.003 956.612 203.567C969.715 183.75 974.456 155.04 970.852 129.092Z" fill="#FF572F" fill-opacity="1.000000" fill-rule="nonzero"/>
			<path id="Vector" d="M858.825 186.967C858.721 187.448 858.968 187.954 859.465 188.091C859.921 188.216 860.485 187.938 860.589 187.451C861.512 183.186 861.737 178.781 861.244 174.446C860.744 170.04 859.562 165.754 857.716 161.723C856.698 159.502 855.47 157.382 854.054 155.39C853.768 154.988 853.256 154.796 852.805 155.061C852.409 155.292 852.189 155.907 852.476 156.31C854.916 159.737 856.778 163.548 857.987 167.576C859.193 171.582 859.763 175.759 859.659 179.941C859.602 182.309 859.324 184.655 858.825 186.967Z" fill="#180205" fill-opacity="1.000000" fill-rule="nonzero"/>
			<path id="Vector" d="M925.233 54.4165C925.732 44.5732 917.135 45.9442 914.89 50.5536C914.89 50.5536 904.922 50.9282 898.816 41.7065C892.711 32.4878 882.95 31.8632 878.841 37.222C878.841 37.222 872.653 36.101 871.779 45.4446C870.907 54.7882 874.664 84.1931 893.595 83.8214C893.595 83.8214 893.461 91.0477 892.961 93.5398L887.977 94.4111C887.977 94.4111 891.852 106.296 910.53 106.996C933.83 107.868 940.807 92.5436 940.807 92.5436L927.1 89.3052C927.1 89.3052 917.882 77.0947 916.136 62.892C916.136 62.8889 924.733 64.2598 925.233 54.4165Z" fill="#FFBEAE" fill-opacity="1.000000" fill-rule="nonzero"/>
			<path id="Vector" d="M928.764 104.582C932.273 103.019 935.527 100.911 938.403 98.3608C938.772 98.0319 938.738 97.4012 938.403 97.0691C938.038 96.7035 937.48 96.7401 937.111 97.0691C932.237 101.389 926.18 104.292 919.786 105.493C913.355 106.699 906.665 106.014 900.559 103.695C897.144 102.397 893.9 100.56 891.045 98.2816C890.661 97.9739 890.128 97.9038 889.753 98.2816C889.434 98.6016 889.366 99.2656 889.753 99.5734C895.204 103.927 901.766 106.696 908.681 107.601C915.509 108.494 922.485 107.379 928.764 104.582Z" fill="#180205" fill-opacity="1.000000" fill-rule="nonzero"/>
			<path id="Vector" d="M926.487 170.162C927.13 167.755 927.776 165.348 928.419 162.941C929.442 159.121 930.463 155.304 931.487 151.483C931.721 150.606 931.956 149.732 932.19 148.854C932.495 147.718 930.731 147.23 930.427 148.367C929.784 150.774 929.138 153.18 928.495 155.587C927.471 159.407 926.451 163.225 925.427 167.045C925.193 167.922 924.958 168.797 924.723 169.674C924.419 170.813 926.183 171.298 926.487 170.162Z" fill="#180205" fill-opacity="1.000000" fill-rule="nonzero"/>
			<path id="Vector" d="M939.435 139.643L900.936 97.0316C900.936 97.0316 883.242 99.024 869.384 102.543C855.525 106.062 842.885 112.733 842.885 112.733C842.885 112.733 835.896 106.004 823.686 104.392C811.476 102.78 794.531 101.269 794.531 101.269L789.379 107.515L834.9 130.114L937.382 149.432L939.435 139.643Z" fill="#FCF4E6" fill-opacity="1.000000" fill-rule="nonzero"/>
			<path id="Vector" d="M881.5 163.565L939.435 151.891L900.449 105.234L850.084 116.094L840.006 116.094L786.555 107.034L823.561 151.891L866.173 161.698L881.5 163.565Z" fill="#0E6AC3" fill-opacity="1.000000" fill-rule="nonzero"/>
			<path id="Vector" d="M850.084 116.094L840.006 116.094L866.173 161.697L881.5 163.565L850.084 116.094Z" fill="#1058C1" fill-opacity="1.000000" fill-rule="nonzero"/>
			<path id="Vector" d="M870.657 156.874L878.63 163.563C878.63 163.563 887.352 159.399 891.09 155.253C891.09 155.253 884.61 150.732 883.614 139.767C882.618 128.803 877.259 129.549 874.767 130.795C872.275 132.041 872.899 135.779 869.408 136.526C865.92 137.272 852.713 128.303 846.855 130.67C840.999 133.037 842.37 139.889 846.108 144.252C849.849 148.611 858.572 155.167 870.657 156.874Z" fill="#FFBEAE" fill-opacity="1.000000" fill-rule="nonzero"/>
			<path id="Vector" d="M945.044 211.034C960.014 208.895 968.642 182.884 970.827 157.979C972.079 143.709 925.607 169.918 925.607 169.918C919.252 168.051 888.976 151.889 888.976 151.889C882.246 158.53 875.894 162.817 875.894 162.817C883.367 174.031 921.494 214.4 945.044 211.034Z" fill="#FF572F" fill-opacity="1.000000" fill-rule="nonzero"/>
			<path id="Vector" d="M944.802 210.154C944.78 210.157 944.761 210.161 944.74 210.161C944.736 210.164 944.752 210.161 944.802 210.154Z" fill="#180205" fill-opacity="1.000000" fill-rule="nonzero"/>
			<path id="Vector" d="" fill="#180205" fill-opacity="1.000000" fill-rule="nonzero"/>
			<path id="Vector" d="" fill="#180205" fill-opacity="1.000000" fill-rule="nonzero"/>
			<path id="Vector" d="M888.513 152.678C888.72 152.784 888.927 152.891 889.135 153.001C889.296 152.845 889.461 152.693 889.622 152.535C889.25 152.583 888.882 152.629 888.513 152.678Z" fill="#180205" fill-opacity="1.000000" fill-rule="nonzero"/>
			<path id="Vector" d="M889.135 153.001C888.927 152.895 888.72 152.788 888.513 152.679C888.882 152.63 889.25 152.584 889.622 152.535C889.46 152.694 889.296 152.843 889.135 153.001C890.143 153.525 891.154 154.052 892.166 154.573C895.139 156.112 898.119 157.641 901.101 159.162C904.858 161.075 908.62 162.976 912.398 164.852C915.968 166.625 919.551 168.383 923.164 170.068C925.586 171.198 928.026 172.383 930.558 173.252C930.725 173.31 930.896 173.364 931.07 173.416C932.2 173.751 932.681 171.987 931.557 171.652C930.649 171.384 929.772 171.012 928.897 170.65C928.891 170.647 928.888 170.647 928.882 170.644C928.876 170.641 928.876 170.641 928.87 170.638C928.806 170.61 928.739 170.583 928.675 170.555C928.511 170.485 928.346 170.415 928.185 170.345C927.865 170.208 927.548 170.068 927.231 169.925C926.512 169.605 925.799 169.279 925.086 168.95C921.58 167.332 918.11 165.638 914.649 163.926C910.844 162.047 907.054 160.136 903.27 158.211C900.157 156.627 897.046 155.033 893.942 153.428C892.464 152.663 890.999 151.862 889.506 151.128C889.485 151.119 889.464 151.107 889.445 151.094C889.08 150.906 888.638 150.942 888.336 151.238C884.592 154.927 880.571 158.366 876.297 161.419C876.013 161.623 875.727 161.824 875.438 162.022C875.047 162.287 874.822 162.839 875.108 163.271C876.726 165.693 878.597 167.957 880.485 170.172C883.2 173.352 886.048 176.42 888.982 179.399C892.461 182.937 896.065 186.352 899.794 189.621C903.724 193.066 907.797 196.353 912.044 199.397C916.081 202.288 920.288 204.969 924.73 207.196C928.648 209.161 932.794 210.83 937.117 211.638C941.071 212.375 945.257 212.439 949.017 210.843C953.477 208.951 956.865 205.167 959.457 201.185C962.753 196.122 965.014 190.388 966.775 184.633C968.801 178.013 970.144 171.195 971.046 164.334C971.268 162.641 971.46 160.941 971.625 159.238C971.674 158.747 971.171 158.324 970.711 158.324C970.178 158.324 969.846 158.744 969.797 159.238C969.136 166.053 968.021 172.831 966.321 179.467C964.795 185.428 962.817 191.345 959.914 196.792C957.656 201.03 954.698 205.283 950.683 207.887C948.901 209.045 947.116 209.785 944.992 210.117C944.947 210.124 944.758 210.151 944.742 210.154C944.764 210.151 944.782 210.148 944.803 210.148C944.751 210.154 944.74 210.157 944.742 210.154C944.669 210.163 944.593 210.172 944.52 210.181C944.289 210.209 944.057 210.23 943.825 210.249C943.372 210.285 942.915 210.303 942.458 210.309C941.531 210.322 940.605 210.276 939.685 210.181C939.466 210.16 939.25 210.133 939.033 210.105C938.957 210.096 938.939 210.093 938.936 210.093C938.933 210.093 938.915 210.09 938.838 210.078C938.707 210.06 938.573 210.038 938.442 210.017C937.967 209.941 937.492 209.855 937.02 209.758C936.011 209.551 935.015 209.295 934.028 209.002C931.971 208.393 929.955 207.616 928.078 206.772C923.721 204.81 919.597 202.358 915.642 199.683C911.435 196.838 907.417 193.721 903.538 190.443C899.733 187.226 896.062 183.85 892.516 180.353C889.424 177.303 886.42 174.159 883.541 170.906C882.368 169.581 881.217 168.237 880.095 166.866C879.617 166.281 879.145 165.69 878.682 165.093C878.657 165.062 878.584 164.965 878.569 164.947C878.587 164.971 878.606 164.996 878.627 165.02C878.575 164.95 878.563 164.935 878.569 164.947C878.542 164.913 878.517 164.88 878.49 164.843C878.383 164.703 878.277 164.566 878.173 164.426C877.987 164.179 877.802 163.929 877.619 163.677C877.463 163.463 877.317 163.244 877.165 163.028C876.897 163.216 876.625 163.405 876.354 163.588C876.464 163.171 876.574 162.753 876.683 162.339C876.839 162.573 877.006 162.799 877.165 163.028C879.983 161.06 882.658 158.854 885.238 156.593C886.566 155.442 887.864 154.235 889.135 153.001Z" fill="#180205" fill-opacity="1.000000" fill-rule="nonzero"/>
			<path id="Vector" d="M878.628 165.035C878.609 165.011 878.591 164.986 878.569 164.961C878.56 164.952 878.572 164.968 878.628 165.035Z" fill="#180205" fill-opacity="1.000000" fill-rule="nonzero"/>
			<path id="Vector" d="M876.354 163.606C876.625 163.423 876.896 163.234 877.165 163.045C877.003 162.817 876.839 162.588 876.683 162.357C876.571 162.771 876.461 163.189 876.354 163.606Z" fill="#180205" fill-opacity="1.000000" fill-rule="nonzero"/>
			<path id="Vector" d="M832.408 134.396C830.416 129.649 814.76 120.111 805.995 130.591C797.227 141.071 809.733 155.249 809.733 155.249L813.221 165.056C820.697 167.798 831.662 161.568 831.662 161.568L829.17 158.079C831.662 150.107 828.423 146.835 828.423 146.835C832.655 144.315 834.4 139.142 832.408 134.396Z" fill="#FFBEAE" fill-opacity="1.000000" fill-rule="nonzero"/>
			<path id="Vector" d="M841.627 165.757C841.627 165.757 834.138 162.364 831.908 159.265C831.908 159.265 825.178 163.064 811.475 163.564C811.475 163.564 816.21 188.234 829.045 194.714L841.627 165.757Z" fill="#E54728" fill-opacity="1.000000" fill-rule="nonzero"/>
			<path id="Vector" d="M777.833 349.216C780.325 341.74 784.81 333.767 800.262 318.815C815.714 303.863 833.231 274.958 833.231 274.958C833.231 274.958 865.552 278.446 884.988 281.934C904.425 285.422 935.978 289.992 952.271 267.481C967.96 245.802 960.709 225.866 960.709 225.866L944.295 226.612C944.295 226.612 903.953 191.992 878.508 187.239C853.064 182.487 824.183 184.747 808.235 208.172C792.286 231.596 753.413 337.255 753.413 337.255C767.369 358.185 777.833 349.216 777.833 349.216Z" fill="#0E6AC3" fill-opacity="1.000000" fill-rule="nonzero"/>
			<path id="Vector" d="M944.288 275.656C906.219 288.067 884.168 252.158 884.168 252.158L890.136 282.818C906.536 285.493 928.76 287.4 944.288 275.656Z" fill="#180205" fill-opacity="1.000000" fill-rule="nonzero"/>
			<path id="Vector" d="M809.023 208.631C812.563 203.455 817.042 198.952 822.279 195.494C827.269 192.198 832.823 189.871 838.605 188.375C850.407 185.325 862.931 185.624 874.892 187.534C877.378 187.93 879.848 188.381 882.273 189.073C884.583 189.73 886.843 190.541 889.067 191.443C894.036 193.462 898.813 195.951 903.462 198.617C912.693 203.909 921.473 209.981 929.97 216.378C934.555 219.83 939.051 223.397 943.448 227.087C943.514 227.142 943.582 227.199 943.646 227.257C944.535 228.019 945.833 226.733 944.937 225.966C941.202 222.761 937.324 219.717 933.421 216.726C925.062 210.313 916.425 204.217 907.38 198.8C902.63 195.955 897.756 193.292 892.699 191.028C888.266 189.045 883.663 187.296 878.877 186.382C866.706 184.058 853.962 183.354 841.752 185.785C829.612 188.201 818.318 194.139 810.388 203.781C809.349 205.045 808.365 206.358 807.442 207.711C806.781 208.683 808.365 209.597 809.023 208.631Z" fill="#180205" fill-opacity="1.000000" fill-rule="nonzero"/>
			<path id="Vector" d="M888.476 362.172C888.476 362.172 891.715 320.806 891.093 296.882C890.472 272.961 880.028 209.24 842.885 217.676C805.742 226.111 831.683 292.894 842.885 308.842C854.087 324.791 862.435 357.684 862.995 365.66C862.995 365.66 877.512 366.656 888.476 362.172Z" fill="#0E6AC3" fill-opacity="1.000000" fill-rule="nonzero"/>
			<path id="Vector" d="M827.222 231.628C827.229 231.613 827.235 231.594 827.244 231.579C827.21 231.653 827.21 231.656 827.222 231.628Z" fill="#180205" fill-opacity="1.000000" fill-rule="nonzero"/>
			<path id="Vector" d="M830.236 226.399C830.239 226.393 830.245 226.386 830.248 226.38C830.186 226.464 830.202 226.442 830.236 226.399Z" fill="#180205" fill-opacity="1.000000" fill-rule="nonzero"/>
			<path id="Vector" d="M824.937 240.374C824.94 240.355 824.94 240.34 824.943 240.322C824.937 240.374 824.934 240.383 824.937 240.374Z" fill="#180205" fill-opacity="1.000000" fill-rule="nonzero"/>
			<path id="Vector" d="M833.858 222.756C833.812 222.793 833.824 222.781 833.855 222.759C833.886 222.738 833.923 222.707 833.858 222.756Z" fill="#180205" fill-opacity="1.000000" fill-rule="nonzero"/>
			<path id="Vector" d="M835.04 291.808C835.062 291.864 835.052 291.836 835.04 291.804C835.027 291.776 835.021 291.761 835.04 291.808Z" fill="#180205" fill-opacity="1.000000" fill-rule="nonzero"/>
			<path id="Vector" d="M858.711 219.683C858.727 219.689 858.742 219.695 858.758 219.701C858.684 219.67 858.684 219.67 858.711 219.683Z" fill="#180205" fill-opacity="1.000000" fill-rule="nonzero"/>
			<path id="Vector" d="M838.61 219.991C838.626 219.985 838.642 219.979 838.659 219.972C838.672 219.966 838.662 219.969 838.61 219.991Z" fill="#180205" fill-opacity="1.000000" fill-rule="nonzero"/>
			<path id="Vector" d="M888.863 281.305C888.878 281.417 888.893 281.53 888.908 281.643C889.018 282.475 889.121 283.309 889.219 284.144C889.569 287.151 889.846 290.17 890.02 293.192C890.09 294.42 890.145 295.651 890.179 296.882C890.209 298.054 892.037 298.061 892.007 296.882C891.933 294.121 891.754 291.364 891.507 288.616C891.202 285.226 890.794 281.844 890.297 278.478C889.755 274.8 889.103 271.138 888.329 267.501C887.516 263.668 886.568 259.86 885.463 256.101C884.354 252.338 883.086 248.622 881.6 244.993C880.162 241.478 878.535 238.032 876.619 234.751C874.824 231.683 872.771 228.746 870.392 226.102C868.189 223.656 865.666 221.462 862.845 219.759C860.1 218.102 857.054 216.92 853.889 216.384C850.379 215.79 846.812 215.936 843.329 216.649C839.987 217.334 836.715 218.565 833.888 220.496C831.308 222.257 829.139 224.539 827.478 227.183C825.803 229.852 824.66 232.85 823.923 235.906C823.116 239.248 822.762 242.702 822.698 246.136C822.628 249.837 822.893 253.539 823.369 257.207C823.877 261.109 824.609 264.979 825.522 268.805C826.424 272.579 827.494 276.312 828.697 280.001C829.849 283.526 831.122 287.011 832.517 290.447C833.781 293.561 835.137 296.641 836.615 299.66C837.794 302.07 839.046 304.446 840.435 306.74C840.965 307.611 841.514 308.473 842.102 309.308C842.385 309.71 842.9 309.899 843.351 309.637C843.75 309.403 843.963 308.793 843.68 308.388C842.37 306.521 841.221 304.537 840.14 302.533C838.72 299.901 837.419 297.201 836.2 294.469C835.859 293.707 835.527 292.942 835.201 292.175C835.162 292.083 835.125 291.992 835.085 291.9C835.079 291.888 835.061 291.84 835.046 291.809C835.058 291.84 835.07 291.867 835.046 291.812C835.025 291.766 835.031 291.779 835.046 291.809C835.037 291.788 835.028 291.766 835.028 291.763C834.939 291.553 834.851 291.34 834.762 291.13C834.595 290.728 834.43 290.325 834.266 289.923C833.59 288.26 832.944 286.584 832.325 284.9C831.024 281.35 829.845 277.756 828.807 274.121C827.746 270.404 826.829 266.645 826.11 262.846C825.398 259.086 824.913 255.623 824.663 251.796C824.435 248.283 824.444 244.743 824.837 241.243C824.858 241.048 824.883 240.853 824.907 240.658C824.919 240.564 824.931 240.472 824.944 240.378C824.944 240.387 824.944 240.378 824.95 240.326C824.947 240.344 824.947 240.36 824.944 240.378C824.947 240.354 824.968 240.201 824.974 240.156C825.032 239.747 825.096 239.339 825.166 238.931C825.303 238.133 825.465 237.337 825.65 236.548C826.01 235.028 826.47 233.526 827.046 232.073C827.104 231.924 827.165 231.778 827.226 231.628C827.213 231.656 827.213 231.653 827.247 231.58C827.241 231.595 827.235 231.613 827.226 231.628C827.244 231.586 827.292 231.47 827.302 231.448C827.341 231.357 827.384 231.263 827.424 231.171C827.579 230.827 827.74 230.486 827.908 230.151C828.243 229.484 828.605 228.835 828.996 228.201C829.379 227.58 829.797 226.979 830.239 226.4C830.205 226.443 830.19 226.464 830.251 226.382C830.248 226.388 830.241 226.394 830.239 226.4C830.263 226.37 830.293 226.327 830.312 226.306C830.364 226.239 830.418 226.172 830.473 226.105C830.595 225.953 830.723 225.8 830.848 225.654C831.085 225.374 831.332 225.1 831.585 224.834C832.094 224.298 832.633 223.787 833.197 223.305C833.331 223.192 833.465 223.08 833.599 222.97C833.678 222.906 833.754 222.845 833.833 222.784C833.836 222.781 833.845 222.775 833.855 222.766C833.827 222.787 833.812 222.8 833.858 222.763C833.922 222.714 833.882 222.745 833.855 222.766C833.885 222.742 833.937 222.705 833.946 222.696C834.248 222.468 834.555 222.245 834.872 222.032C835.515 221.596 836.182 221.197 836.868 220.832C837.221 220.643 837.578 220.466 837.94 220.295C838.111 220.216 838.284 220.137 838.458 220.061C838.482 220.052 838.635 219.985 838.662 219.972C838.647 219.979 838.632 219.985 838.616 219.991C838.665 219.969 838.674 219.966 838.662 219.972C838.747 219.936 838.836 219.902 838.921 219.866C840.545 219.211 842.236 218.729 843.954 218.385C844.402 218.294 844.853 218.215 845.303 218.145C845.407 218.129 845.511 218.114 845.614 218.099C845.642 218.096 845.76 218.077 845.803 218.071C845.791 218.071 845.782 218.074 845.77 218.074C845.827 218.068 845.827 218.068 845.803 218.071C846.025 218.041 846.251 218.017 846.473 217.992C847.329 217.901 848.188 217.846 849.051 217.834C849.879 217.822 850.708 217.849 851.534 217.916C851.927 217.949 852.32 217.989 852.713 218.041C852.664 218.035 852.643 218.032 852.74 218.044C852.731 218.044 852.722 218.041 852.713 218.041C852.758 218.047 852.825 218.056 852.856 218.062C852.947 218.074 853.042 218.09 853.133 218.105C853.343 218.138 853.55 218.175 853.76 218.211C855.299 218.495 856.807 218.93 858.263 219.503C858.416 219.564 858.568 219.625 858.717 219.689C858.69 219.677 858.693 219.677 858.763 219.707C858.748 219.701 858.732 219.695 858.717 219.689C858.76 219.707 858.879 219.759 858.903 219.768C858.998 219.811 859.092 219.851 859.187 219.893C859.54 220.052 859.887 220.219 860.234 220.396C860.926 220.749 861.602 221.13 862.263 221.541C862.927 221.956 863.576 222.4 864.207 222.866C864.28 222.921 864.353 222.976 864.429 223.031C864.454 223.049 864.527 223.104 864.557 223.128C864.548 223.119 864.536 223.113 864.527 223.104C864.582 223.147 864.582 223.147 864.557 223.128C864.713 223.25 864.871 223.372 865.023 223.497C865.334 223.747 865.642 224.006 865.94 224.268C867.174 225.343 868.329 226.507 869.411 227.735C870.596 229.078 871.464 230.199 872.472 231.64C874.547 234.602 876.32 237.767 877.877 241.03C878.705 242.763 879.418 244.402 880.098 246.099C880.817 247.891 881.484 249.7 882.105 251.528C883.361 255.214 884.436 258.958 885.371 262.739C886.282 266.426 887.059 270.145 887.72 273.883C888.034 275.659 888.32 277.442 888.582 279.227C888.646 279.66 888.707 280.092 888.768 280.525C888.795 280.726 888.823 280.924 888.85 281.125C888.875 281.308 888.856 281.177 888.853 281.137C888.847 281.192 888.856 281.25 888.863 281.305Z" fill="#180205" fill-opacity="1.000000" fill-rule="nonzero"/>
			<path id="Vector" d="M864.515 223.104C864.525 223.114 864.538 223.12 864.547 223.13C864.573 223.149 864.573 223.149 864.515 223.104Z" fill="#180205" fill-opacity="1.000000" fill-rule="nonzero"/>
			<path id="Vector" d="M852.707 218.039C852.716 218.039 852.725 218.042 852.734 218.042C852.639 218.029 852.657 218.032 852.707 218.039Z" fill="#180205" fill-opacity="1.000000" fill-rule="nonzero"/>
			<path id="Vector" d="M845.766 218.072C845.779 218.072 845.789 218.069 845.802 218.069C845.828 218.066 845.828 218.066 845.766 218.072Z" fill="#180205" fill-opacity="1.000000" fill-rule="nonzero"/>
			<path id="Vector" d="M748.678 384.101C762.384 383.602 773.349 377.871 774.844 376.375C776.34 374.879 777.586 373.384 777.836 364.415C778.086 355.443 777.836 349.213 777.836 349.213C769.364 350.209 768.368 344.728 764.13 340.24C759.892 335.753 754.244 335.147 753.415 335.007C750.917 334.586 743.697 346.471 736.471 353.447C729.244 360.424 719.276 360.923 719.276 368.15C719.273 378.371 734.972 384.601 748.678 384.101Z" fill="#F71F6A" fill-opacity="1.000000" fill-rule="nonzero"/>
			<path id="Vector" d="M748.678 384.101C762.384 383.602 773.348 377.871 774.844 376.375C776.312 374.907 777.537 373.435 777.817 364.908C761.135 366.827 762.966 375.428 745.439 376.375C732.729 377.061 723.69 371.239 719.3 367.552C719.285 367.748 719.273 367.946 719.273 368.15C719.273 378.371 734.971 384.601 748.678 384.101Z" fill="#FFFFFF" fill-opacity="1.000000" fill-rule="nonzero"/>
			<path id="Vector" d="M888.227 360.179C884.571 359.433 881.747 363.171 873.938 364.167C867.836 364.947 865.777 362.522 862.837 364.176C859.9 365.828 859.568 374.635 859.568 383.107C859.568 391.58 855.58 399.306 855.83 404.29C856.08 409.274 859.318 414.508 874.021 413.509C888.723 412.512 891.873 407.528 891.169 399.552C890.466 391.58 891.169 386.014 893.591 378.288C895.264 372.959 892.016 360.953 888.227 360.179Z" fill="#F71F6A" fill-opacity="1.000000" fill-rule="nonzero"/>
			<path id="Vector" d="M874.023 413.506C887.34 412.604 891.178 408.431 891.264 401.728C877.055 408.817 862.517 406.77 855.918 405.226C856.533 409.902 860.241 414.441 874.023 413.506Z" fill="#FFFFFF" fill-opacity="1.000000" fill-rule="nonzero"/>
			<path id="Vector" d="M880.96 364.052C882.24 363.513 883.467 362.867 884.628 362.105C885.039 361.834 885.213 361.298 884.957 360.856C884.716 360.448 884.122 360.256 883.708 360.528C879.882 363.041 875.312 364.269 870.739 364.052C869.472 363.991 868.219 363.812 866.986 363.522C866.504 363.409 865.996 363.671 865.862 364.162C865.734 364.625 866.017 365.173 866.501 365.286C871.3 366.41 876.415 365.969 880.96 364.052Z" fill="#180205" fill-opacity="1.000000" fill-rule="nonzero"/>
			<path id="Vector" d="M764.22 341.269C766.593 343.91 767.775 347.475 770.813 349.522C772.409 350.597 774.426 351.149 776.306 350.567C777.427 350.219 776.948 348.456 775.821 348.803C774.408 349.239 772.979 348.778 771.736 347.944C770.365 347.021 769.405 345.635 768.528 344.26C767.574 342.771 766.667 341.248 765.472 339.931C764.375 338.722 763.069 337.68 761.655 336.864C760.028 335.925 758.231 335.264 756.381 334.953C755.894 334.871 755.397 335.081 755.257 335.593C755.135 336.032 755.406 336.635 755.897 336.717C759.096 337.257 762.045 338.85 764.22 341.269Z" fill="#180205" fill-opacity="1.000000" fill-rule="nonzero"/>
			<path id="Vector" d="M916.858 54.916C916.937 52.7957 919.049 51.1018 921.123 51.3638C921.37 51.3943 921.58 51.1322 921.58 50.9069C921.58 50.6356 921.37 50.4803 921.123 50.4498C918.54 50.1239 916.042 52.3478 915.944 54.916C915.923 55.504 916.837 55.504 916.858 54.916Z" fill="#180205" fill-opacity="1.000000" fill-rule="nonzero"/>
			<path id="Vector" d="M895.712 57.6025C896.592 57.4412 897.113 56.256 896.875 54.9613C896.635 53.6665 895.727 52.7465 894.846 52.908C893.966 53.0693 893.445 54.2545 893.683 55.5492C893.92 56.847 894.831 57.764 895.712 57.6025Z" fill="#180205" fill-opacity="1.000000" fill-rule="nonzero"/>
			<path id="Vector" d="M895.616 56.5375C895.616 56.8807 895.338 57.1591 894.995 57.1591C894.652 57.1591 894.374 56.8807 894.374 56.5375C894.374 56.1943 894.652 55.916 894.995 55.916C895.338 55.916 895.616 56.1943 895.616 56.5375Z" fill="#FFFFFF" fill-opacity="1.000000" fill-rule="evenodd"/>
			<path id="Vector" d="M882.686 58.3391C883.156 59.5697 882.859 60.8269 882.021 61.1472C881.183 61.4674 880.123 60.7295 879.652 59.4989C879.182 58.2682 879.48 57.011 880.317 56.6908C881.155 56.3705 882.216 57.1085 882.686 58.3391Z" fill="#180205" fill-opacity="1.000000" fill-rule="evenodd"/>
			<path id="Vector" d="M881.225 60.8237C881.563 60.7598 881.785 60.4369 881.725 60.0986C881.66 59.7605 881.338 59.5381 881 59.599C880.661 59.6599 880.439 59.986 880.5 60.3241C880.561 60.6622 880.887 60.8877 881.225 60.8237Z" fill="#FFFFFF" fill-opacity="1.000000" fill-rule="nonzero"/>
			<path id="Vector" d="M892.138 49.1744C892.5 48.5255 893.094 48.0289 893.813 47.8248C894.599 47.5995 895.434 47.7548 896.116 48.1965C896.61 48.5165 897.07 47.7274 896.576 47.4075C895.699 46.8378 894.578 46.655 893.57 46.9445C892.631 47.2125 891.821 47.8615 891.349 48.7145C891.062 49.2294 891.851 49.6893 892.138 49.1744Z" fill="#180205" fill-opacity="1.000000" fill-rule="nonzero"/>
			<path id="Vector" d="M876.903 53.9652C877.266 53.3164 877.86 52.8198 878.579 52.6156C879.365 52.3903 880.199 52.5455 880.882 52.9873C881.375 53.3073 881.835 52.5182 881.342 52.1982C880.465 51.6285 879.344 51.4458 878.335 51.7352C877.397 52.0033 876.586 52.6522 876.114 53.5052C875.828 54.0171 876.617 54.4801 876.903 53.9652Z" fill="#180205" fill-opacity="1.000000" fill-rule="nonzero"/>
			<path id="Vector" d="M886.161 64.9706C886.247 64.7968 886.323 64.6199 886.399 64.446C886.228 64.4064 886.058 64.3577 885.887 64.2997C885.978 64.5254 886.07 64.748 886.161 64.9706Z" fill="#180205" fill-opacity="1.000000" fill-rule="nonzero"/>
			<path id="Vector" d="M885.643 65.1799C886.6 65.506 887.602 65.5699 888.595 65.4084C889.174 65.314 888.927 64.4336 888.351 64.528C887.693 64.6346 887.035 64.598 886.396 64.4458C886.319 64.6224 886.243 64.7992 886.158 64.9697C886.066 64.7473 885.975 64.522 885.884 64.2996C886.051 64.3574 886.222 64.4061 886.396 64.4458C887.178 62.6514 887.55 60.6985 887.438 58.7366C887.404 58.1516 886.49 58.1486 886.523 58.7366C886.636 60.729 886.249 62.7184 885.366 64.5098C885.235 64.7839 885.351 65.0825 885.643 65.1799Z" fill="#180205" fill-opacity="1.000000" fill-rule="nonzero"/>
			<path id="Vector" d="M895.672 68.4253C896.047 67.9774 895.404 67.3285 895.026 67.7794C893.576 69.5038 891.188 70.2958 889 69.7262C888.43 69.5769 888.187 70.4603 888.756 70.6066C891.236 71.2524 894.015 70.3933 895.672 68.4253Z" fill="#180205" fill-opacity="1.000000" fill-rule="nonzero"/>
			<path id="Vector" d="M907.581 78.092C902.307 83.5758 893.594 83.8225 893.594 83.8225L893.347 89.879C905.92 87.9353 907.581 78.092 907.581 78.092Z" fill="#180205" fill-opacity="1.000000" fill-rule="nonzero"/>
			<path id="Vector" d="M823.872 147.009C821.666 147.561 819.342 147.515 817.148 146.927C816.012 146.622 815.524 148.386 816.664 148.691C820.786 149.797 825.395 149.175 828.923 146.708C832.101 144.487 834.203 140.953 834.084 137.007C834.017 134.796 833.273 132.691 831.878 130.969C831.567 130.585 830.909 130.646 830.586 130.969C830.209 131.347 830.276 131.877 830.586 132.261C832.612 134.759 832.756 138.528 831.321 141.337C829.84 144.237 826.991 146.226 823.872 147.009Z" fill="#180205" fill-opacity="1.000000" fill-rule="nonzero"/>
		</g>
	</g>
</svg>
