<svg width="24.000000" height="24.000000" viewBox="0 0 24 24" fill="none" xmlns="http://www.w3.org/2000/svg" xmlns:xlink="http://www.w3.org/1999/xlink">
	<desc>
			Created with Pixso.
	</desc>
	<defs>
		<clipPath id="clip1041_7290">
			<rect id="headphone-line" width="24.000000" height="24.000000" fill="white" fill-opacity="0"/>
		</clipPath>
	</defs>
	<rect id="headphone-line" width="24.000000" height="24.000000" fill="#FFFFFF" fill-opacity="0"/>
	<g clip-path="url(#clip1041_7290)">
		<path id="Vector" d="M12 4C9.87793 4 7.84375 4.84277 6.34277 6.34326C4.84277 7.84351 4 9.87817 4 12L7 12C7.53027 12 8.03906 12.2107 8.41406 12.5857C8.78906 12.9609 9 13.4695 9 14L9 19C9 19.5305 8.78906 20.0391 8.41406 20.4143C8.03906 20.7893 7.53027 21 7 21L4 21C3.46973 21 2.96094 20.7893 2.58594 20.4143C2.21094 20.0391 2 19.5305 2 19L2 12C2 6.47705 6.47656 2 12 2C17.5234 2 22 6.47705 22 12L22 19C22 19.5305 21.7891 20.0391 21.4141 20.4143C21.0391 20.7893 20.5303 21 20 21L17 21C16.4697 21 15.9609 20.7893 15.5859 20.4143C15.2109 20.0391 15 19.5305 15 19L15 14C15 13.4695 15.2109 12.9609 15.5859 12.5857C15.9609 12.2107 16.4697 12 17 12L20 12C20 9.87817 19.1572 7.84351 17.6572 6.34326C16.1562 4.84277 14.1221 4 12 4ZM4 14L4 19L7 19L7 14L4 14ZM17 14L17 19L20 19L20 14L17 14Z" fill="#242424" fill-opacity="1.000000" fill-rule="nonzero"/>
	</g>
</svg>
