<svg width="24.000000" height="24.000000" viewBox="0 0 24 24" fill="none" xmlns="http://www.w3.org/2000/svg" xmlns:xlink="http://www.w3.org/1999/xlink">
	<desc>
			Created with Pixso.
	</desc>
	<defs>
		<clipPath id="clip1041_7308">
			<rect id="book-mark-line" width="24.000000" height="24.000000" fill="white" fill-opacity="0"/>
		</clipPath>
	</defs>
	<rect id="book-mark-line" width="24.000000" height="24.000000" fill="#FFFFFF" fill-opacity="0"/>
	<g clip-path="url(#clip1041_7308)">
		<path id="Vector" d="M3 18.5L3 5C3 4.20435 3.31641 3.44141 3.87891 2.87866C4.44141 2.31616 5.2041 2 6 2L20 2C20.2656 2 20.5195 2.10547 20.707 2.29297C20.8945 2.48047 21 2.73486 21 3L21 21C21 21.2651 20.8945 21.5195 20.707 21.707C20.5195 21.8945 20.2656 22 20 22L6.5 22C5.57129 22 4.68164 21.6313 4.02539 20.9749C3.36914 20.3186 3 19.4282 3 18.5ZM19 20L19 17L6.5 17C6.10254 17 5.7207 17.158 5.43945 17.4395C5.1582 17.7207 5 18.1023 5 18.5C5 18.8977 5.1582 19.2793 5.43945 19.5605C5.7207 19.842 6.10254 20 6.5 20L19 20ZM10 4L6 4C5.73438 4 5.48047 4.10547 5.29297 4.29297C5.10547 4.48047 5 4.73486 5 5L5 15.3369C5.46875 15.1145 5.98145 14.9993 6.5 15L19 15L19 4L17 4L17 12L13.5 10L10 12L10 4Z" fill="#242424" fill-opacity="1.000000" fill-rule="nonzero"/>
	</g>
</svg>
