<svg width="127.000000" height="26.000000" viewBox="0 0 127 26" fill="none" xmlns="http://www.w3.org/2000/svg" xmlns:xlink="http://www.w3.org/1999/xlink">
	<desc>
			Created with Pixso.
	</desc>
	<defs>
		<clipPath id="clip1041_7238">
			<rect id="chat (2) 1" width="24.000000" height="24.000000" transform="translate(0.000000 2.000000)" fill="white" fill-opacity="0"/>
		</clipPath>
	</defs>
	<path id="235 Фикрлар" d="M40.5887 18.124L40.5887 17.102L43.1647 14.4C43.5567 13.9893 43.8927 13.6253 44.1727 13.308C44.4527 12.9907 44.6674 12.678 44.8167 12.37C44.9661 12.062 45.0407 11.7307 45.0407 11.376C45.0407 10.788 44.8774 10.3867 44.5507 10.172C44.2334 9.948 43.7481 9.836 43.0947 9.836C42.8521 9.836 42.5814 9.85467 42.2827 9.892C41.9934 9.92 41.7087 9.95733 41.4287 10.004C41.1581 10.0413 40.9294 10.0833 40.7427 10.13L40.6447 9.122C40.8501 9.066 41.0974 9.01 41.3867 8.954C41.6761 8.898 41.9934 8.85133 42.3387 8.814C42.6841 8.76733 43.0201 8.744 43.3467 8.744C44.3267 8.744 45.0641 8.94467 45.5587 9.346C46.0627 9.738 46.3147 10.368 46.3147 11.236C46.3147 11.6933 46.2401 12.1087 46.0907 12.482C45.9507 12.846 45.7361 13.2007 45.4467 13.546C45.1667 13.8913 44.8027 14.2787 44.3547 14.708L42.0167 17.06L46.5247 17.06L46.5247 18.124L40.5887 18.124ZM51.321 18.264C50.9757 18.264 50.6117 18.2407 50.229 18.194C49.8464 18.1567 49.487 18.11 49.151 18.054C48.815 17.998 48.535 17.942 48.311 17.886L48.409 16.892C48.6237 16.9293 48.885 16.9713 49.193 17.018C49.5104 17.0647 49.8464 17.1067 50.201 17.144C50.5557 17.172 50.887 17.186 51.195 17.186C51.8484 17.186 52.329 17.046 52.637 16.766C52.9544 16.486 53.113 16.066 53.113 15.506C53.113 15.1047 53.0337 14.7873 52.875 14.554C52.7164 14.3207 52.497 14.148 52.217 14.036C51.9464 13.924 51.643 13.8633 51.307 13.854L49.431 13.854L49.431 12.818L51.293 12.818C51.5264 12.818 51.7644 12.7573 52.007 12.636C52.259 12.5053 52.469 12.3233 52.637 12.09C52.8144 11.8473 52.903 11.558 52.903 11.222C52.903 10.718 52.763 10.3587 52.483 10.144C52.203 9.92 51.7364 9.808 51.083 9.808C50.7844 9.808 50.4717 9.82667 50.145 9.864C49.8277 9.892 49.5244 9.92933 49.235 9.976C48.955 10.0133 48.7217 10.0553 48.535 10.102L48.437 9.122C48.633 9.066 48.8757 9.01 49.165 8.954C49.4637 8.88867 49.781 8.83733 50.117 8.8C50.4624 8.75333 50.803 8.73 51.139 8.73C51.8857 8.73 52.4784 8.81867 52.917 8.996C53.3557 9.164 53.673 9.42533 53.869 9.78C54.065 10.1347 54.163 10.592 54.163 11.152C54.163 11.4973 54.107 11.796 53.995 12.048C53.8924 12.2907 53.7617 12.496 53.603 12.664C53.4537 12.8227 53.3044 12.9487 53.155 13.042C53.015 13.1353 52.903 13.2053 52.819 13.252C53.1364 13.364 53.4117 13.4993 53.645 13.658C53.8784 13.8167 54.0604 14.036 54.191 14.316C54.3217 14.596 54.387 14.9787 54.387 15.464C54.387 16.0987 54.2797 16.626 54.065 17.046C53.8504 17.4567 53.5144 17.7647 53.057 17.97C52.609 18.166 52.0304 18.264 51.321 18.264ZM59.2253 18.25C58.88 18.25 58.5113 18.2267 58.1193 18.18C57.7367 18.1333 57.368 18.082 57.0133 18.026C56.6587 17.9607 56.3647 17.9 56.1313 17.844L56.2573 16.864C56.4907 16.9013 56.7707 16.948 57.0973 17.004C57.4333 17.0507 57.774 17.0927 58.1193 17.13C58.474 17.158 58.8007 17.172 59.0993 17.172C59.7153 17.172 60.2007 16.9993 60.5553 16.654C60.91 16.3087 61.0873 15.8047 61.0873 15.142C61.0873 14.694 61.008 14.344 60.8493 14.092C60.7 13.8307 60.4853 13.6487 60.2053 13.546C59.9347 13.434 59.6127 13.378 59.2393 13.378C58.9687 13.378 58.6933 13.406 58.4133 13.462C58.1427 13.518 57.8953 13.588 57.6713 13.672C57.4473 13.7467 57.2607 13.826 57.1113 13.91L56.2853 13.756L56.5373 8.884L61.9833 8.884L61.9833 9.99L57.5313 9.99L57.2933 12.818C57.452 12.7433 57.6433 12.6687 57.8673 12.594C58.1007 12.51 58.348 12.44 58.6093 12.384C58.8707 12.3187 59.132 12.286 59.3933 12.286C60 12.286 60.5227 12.3793 60.9613 12.566C61.4 12.7433 61.7407 13.0327 61.9833 13.434C62.226 13.8353 62.3473 14.3673 62.3473 15.03C62.3473 15.7487 62.2213 16.346 61.9693 16.822C61.7267 17.298 61.372 17.6573 60.9053 17.9C60.4387 18.1333 59.8787 18.25 59.2253 18.25ZM72.4178 7.988L72.4178 9.22C73.5005 9.23867 74.3545 9.416 74.9798 9.752C75.6052 10.088 76.0485 10.536 76.3098 11.096C76.5712 11.6467 76.7018 12.2627 76.7018 12.944C76.7018 13.392 76.6318 13.84 76.4918 14.288C76.3612 14.7267 76.1325 15.128 75.8058 15.492C75.4792 15.8467 75.0405 16.136 74.4898 16.36C73.9392 16.584 73.2485 16.7053 72.4178 16.724L72.4178 18.264L71.1718 18.264L71.1718 16.724C70.3225 16.7053 69.6178 16.584 69.0578 16.36C68.5072 16.1267 68.0732 15.828 67.7558 15.464C67.4385 15.0907 67.2145 14.6847 67.0838 14.246C66.9532 13.8073 66.8878 13.3733 66.8878 12.944C66.8878 12.4493 66.9578 11.9827 67.0978 11.544C67.2472 11.096 67.4852 10.704 67.8118 10.368C68.1478 10.0227 68.5912 9.74733 69.1418 9.542C69.6925 9.33667 70.3692 9.22933 71.1718 9.22L71.1718 7.988L72.4178 7.988ZM71.1718 10.284C70.4252 10.3027 69.8278 10.424 69.3798 10.648C68.9412 10.872 68.6285 11.18 68.4418 11.572C68.2552 11.9547 68.1618 12.4073 68.1618 12.93C68.1618 13.4807 68.2645 13.9613 68.4698 14.372C68.6845 14.7733 69.0112 15.086 69.4498 15.31C69.8978 15.534 70.4718 15.66 71.1718 15.688L71.1718 10.284ZM72.4178 15.688C73.1365 15.66 73.7152 15.5293 74.1538 15.296C74.6018 15.0627 74.9238 14.7453 75.1198 14.344C75.3252 13.9333 75.4278 13.462 75.4278 12.93C75.4278 12.398 75.3345 11.9407 75.1478 11.558C74.9612 11.166 74.6485 10.8627 74.2098 10.648C73.7712 10.424 73.1738 10.3027 72.4178 10.284L72.4178 15.688ZM79.7778 15.198C79.7778 15.282 79.7731 15.4033 79.7638 15.562C79.7638 15.7113 79.7591 15.8747 79.7498 16.052C79.7404 16.22 79.7311 16.3833 79.7218 16.542C79.7124 16.6913 79.7031 16.8127 79.6938 16.906L83.7118 10.62L85.2238 10.62L85.2238 18.124L84.0758 18.124L84.0758 13.7C84.0758 13.5507 84.0758 13.3547 84.0758 13.112C84.0851 12.8693 84.0945 12.6313 84.1038 12.398C84.1131 12.1553 84.1225 11.9733 84.1318 11.852L80.1418 18.124L78.6158 18.124L78.6158 10.62L79.7778 10.62L79.7778 15.198ZM92.0499 10.62L93.3939 10.62L90.1879 14.232L93.6599 18.124L92.2319 18.124L88.8439 14.316L88.8439 18.124L87.6119 18.124L87.6119 10.62L88.8439 10.62L88.8439 14.26L92.0499 10.62ZM98.592 10.48C99.516 10.48 100.258 10.802 100.818 11.446C101.387 12.09 101.672 13.0607 101.672 14.358C101.672 15.2073 101.541 15.926 101.28 16.514C101.028 17.0927 100.669 17.5313 100.202 17.83C99.7447 18.1193 99.2034 18.264 98.578 18.264C98.1954 18.264 97.8547 18.2127 97.556 18.11C97.2574 18.0073 97.0007 17.8767 96.786 17.718C96.5807 17.55 96.4034 17.368 96.254 17.172L96.17 17.172C96.1887 17.3307 96.2074 17.5313 96.226 17.774C96.2447 18.0167 96.254 18.2267 96.254 18.404L96.254 21.484L95.022 21.484L95.022 10.62L96.03 10.62L96.198 11.642L96.254 11.642C96.4034 11.4273 96.5807 11.2313 96.786 11.054C97.0007 10.8767 97.2527 10.7367 97.542 10.634C97.8407 10.5313 98.1907 10.48 98.592 10.48ZM98.368 11.516C97.864 11.516 97.458 11.614 97.15 11.81C96.842 11.9967 96.618 12.2813 96.478 12.664C96.338 13.0467 96.2634 13.532 96.254 14.12L96.254 14.358C96.254 14.974 96.3194 15.4967 96.45 15.926C96.5807 16.3553 96.8 16.682 97.108 16.906C97.4254 17.13 97.8547 17.242 98.396 17.242C98.8534 17.242 99.2267 17.116 99.516 16.864C99.8147 16.612 100.034 16.2713 100.174 15.842C100.323 15.4033 100.398 14.904 100.398 14.344C100.398 13.4853 100.23 12.7993 99.894 12.286C99.5674 11.7727 99.0587 11.516 98.368 11.516ZM109.347 18.124L108.101 18.124L108.101 11.642L105.889 11.642C105.796 12.8273 105.679 13.84 105.539 14.68C105.399 15.5107 105.222 16.1873 105.007 16.71C104.793 17.2327 104.536 17.6153 104.237 17.858C103.939 18.1007 103.589 18.222 103.187 18.222C103.066 18.222 102.945 18.2127 102.823 18.194C102.711 18.1847 102.618 18.1613 102.543 18.124L102.543 17.2C102.599 17.2187 102.66 17.2327 102.725 17.242C102.791 17.2513 102.856 17.256 102.921 17.256C103.127 17.256 103.313 17.172 103.481 17.004C103.649 16.836 103.799 16.5793 103.929 16.234C104.069 15.8887 104.195 15.4547 104.307 14.932C104.419 14.4 104.517 13.7747 104.601 13.056C104.685 12.3373 104.76 11.5253 104.825 10.62L109.347 10.62L109.347 18.124ZM114.571 10.494C115.486 10.494 116.162 10.6947 116.601 11.096C117.04 11.4973 117.259 12.1367 117.259 13.014L117.259 18.124L116.363 18.124L116.125 17.06L116.069 17.06C115.854 17.3307 115.63 17.5593 115.397 17.746C115.173 17.9233 114.912 18.054 114.613 18.138C114.324 18.222 113.969 18.264 113.549 18.264C113.101 18.264 112.695 18.1847 112.331 18.026C111.976 17.8673 111.696 17.6247 111.491 17.298C111.286 16.962 111.183 16.542 111.183 16.038C111.183 15.2913 111.477 14.7173 112.065 14.316C112.653 13.9053 113.558 13.6813 114.781 13.644L116.055 13.602L116.055 13.154C116.055 12.5287 115.92 12.0947 115.649 11.852C115.378 11.6093 114.996 11.488 114.501 11.488C114.109 11.488 113.736 11.5487 113.381 11.67C113.026 11.782 112.695 11.9127 112.387 12.062L112.009 11.138C112.336 10.9607 112.723 10.8113 113.171 10.69C113.619 10.5593 114.086 10.494 114.571 10.494ZM114.935 14.498C114.002 14.5353 113.353 14.6847 112.989 14.946C112.634 15.2073 112.457 15.576 112.457 16.052C112.457 16.472 112.583 16.78 112.835 16.976C113.096 17.172 113.428 17.27 113.829 17.27C114.464 17.27 114.991 17.0973 115.411 16.752C115.831 16.3973 116.041 15.856 116.041 15.128L116.041 14.456L114.935 14.498ZM123.147 10.48C124.071 10.48 124.813 10.802 125.373 11.446C125.942 12.09 126.227 13.0607 126.227 14.358C126.227 15.2073 126.096 15.926 125.835 16.514C125.583 17.0927 125.223 17.5313 124.757 17.83C124.299 18.1193 123.758 18.264 123.133 18.264C122.75 18.264 122.409 18.2127 122.111 18.11C121.812 18.0073 121.555 17.8767 121.341 17.718C121.135 17.55 120.958 17.368 120.809 17.172L120.725 17.172C120.743 17.3307 120.762 17.5313 120.781 17.774C120.799 18.0167 120.809 18.2267 120.809 18.404L120.809 21.484L119.577 21.484L119.577 10.62L120.585 10.62L120.753 11.642L120.809 11.642C120.958 11.4273 121.135 11.2313 121.341 11.054C121.555 10.8767 121.807 10.7367 122.097 10.634C122.395 10.5313 122.745 10.48 123.147 10.48ZM122.923 11.516C122.419 11.516 122.013 11.614 121.705 11.81C121.397 11.9967 121.173 12.2813 121.033 12.664C120.893 13.0467 120.818 13.532 120.809 14.12L120.809 14.358C120.809 14.974 120.874 15.4967 121.005 15.926C121.135 16.3553 121.355 16.682 121.663 16.906C121.98 17.13 122.409 17.242 122.951 17.242C123.408 17.242 123.781 17.116 124.071 16.864C124.369 16.612 124.589 16.2713 124.729 15.842C124.878 15.4033 124.953 14.904 124.953 14.344C124.953 13.4853 124.785 12.7993 124.449 12.286C124.122 11.7727 123.613 11.516 122.923 11.516Z" fill="#11142D" fill-opacity="1.000000" fill-rule="evenodd"/>
	<rect id="chat (2) 1" width="24.000000" height="24.000000" transform="translate(0.000000 2.000000)" fill="#FFFFFF" fill-opacity="0"/>
	<g clip-path="url(#clip1041_7238)">
		<path id="Vector" d="M18 3L6 3C4.6748 3.00171 3.40332 3.52881 2.46582 4.46631C1.5293 5.40356 1.00195 6.67432 1 8L1 16C1.00098 17.1521 1.40039 18.2688 2.12891 19.1614C2.85742 20.0537 3.87109 20.668 5 20.8999L5 24C5 24.1812 5.04883 24.3586 5.14258 24.5139C5.23535 24.6694 5.36816 24.7964 5.52832 24.8818C5.6875 24.9673 5.86816 25.0078 6.04883 24.999C6.22949 24.9902 6.4043 24.9324 6.55469 24.832L12.2998 21L18 21C19.3252 20.9985 20.5967 20.4712 21.5342 19.5337C22.4707 18.5964 22.998 17.3257 23 16L23 8C22.998 6.67432 22.4707 5.40356 21.5342 4.46631C20.5967 3.52881 19.3252 3.00171 18 3ZM16 15L8 15C7.73438 15 7.48047 14.8945 7.29297 14.707C7.10547 14.5195 7 14.2651 7 14C7 13.7349 7.10547 13.4805 7.29297 13.293C7.48047 13.1055 7.73438 13 8 13L16 13C16.2656 13 16.5195 13.1055 16.707 13.293C16.8945 13.4805 17 13.7349 17 14C17 14.2651 16.8945 14.5195 16.707 14.707C16.5195 14.8945 16.2656 15 16 15ZM18 11L6 11C5.73438 11 5.48047 10.8945 5.29297 10.707C5.10547 10.5195 5 10.2651 5 10C5 9.73486 5.10547 9.48047 5.29297 9.29297C5.48047 9.10547 5.73438 9 6 9L18 9C18.2656 9 18.5195 9.10547 18.707 9.29297C18.8945 9.48047 19 9.73486 19 10C19 10.2651 18.8945 10.5195 18.707 10.707C18.5195 10.8945 18.2656 11 18 11Z" fill="#3F51B5" fill-opacity="1.000000" fill-rule="nonzero"/>
	</g>
</svg>
