<svg width="64.000000" height="24.000000" viewBox="0 0 64 24" fill="none" xmlns="http://www.w3.org/2000/svg" xmlns:xlink="http://www.w3.org/1999/xlink">
	<desc>
			Created with Pixso.
	</desc>
	<defs>
		<clipPath id="clip1041_7213">
			<rect id="headphone-line" width="24.000000" height="24.000000" fill="white" fill-opacity="0"/>
		</clipPath>
		<clipPath id="clip1041_7214">
			<rect id="book-mark-line" width="24.000000" height="24.000000" transform="translate(40.000000 0.000000)" fill="white" fill-opacity="0"/>
		</clipPath>
	</defs>
	<rect id="headphone-line" width="24.000000" height="24.000000" fill="#FFFFFF" fill-opacity="0"/>
	<g clip-path="url(#clip1041_7213)">
		<path id="Vector" d="M12 4C9.87793 4 7.84375 4.84277 6.34277 6.34326C4.84277 7.84351 4 9.87817 4 12L7 12C7.53027 12 8.03906 12.2107 8.41406 12.5857C8.78906 12.9609 9 13.4695 9 14L9 19C9 19.5305 8.78906 20.0391 8.41406 20.4143C8.03906 20.7893 7.53027 21 7 21L4 21C3.46973 21 2.96094 20.7893 2.58594 20.4143C2.21094 20.0391 2 19.5305 2 19L2 12C2 6.47705 6.47656 2 12 2C17.5234 2 22 6.47705 22 12L22 19C22 19.5305 21.7891 20.0391 21.4141 20.4143C21.0391 20.7893 20.5303 21 20 21L17 21C16.4697 21 15.9609 20.7893 15.5859 20.4143C15.2109 20.0391 15 19.5305 15 19L15 14C15 13.4695 15.2109 12.9609 15.5859 12.5857C15.9609 12.2107 16.4697 12 17 12L20 12C20 9.87817 19.1572 7.84351 17.6572 6.34326C16.1562 4.84277 14.1221 4 12 4ZM4 14L4 19L7 19L7 14L4 14ZM17 14L17 19L20 19L20 14L17 14Z" fill="#9A9A9A" fill-opacity="1.000000" fill-rule="nonzero"/>
	</g>
	<rect id="book-mark-line" width="24.000000" height="24.000000" transform="translate(40.000000 0.000000)" fill="#FFFFFF" fill-opacity="0"/>
	<g clip-path="url(#clip1041_7214)">
		<path id="Vector" d="M43 18.5L43 5C43 4.20435 43.3164 3.44141 43.8789 2.87866C44.4414 2.31616 45.2041 2 46 2L60 2C60.2656 2 60.5195 2.10547 60.707 2.29297C60.8945 2.48047 61 2.73486 61 3L61 21C61 21.2651 60.8945 21.5195 60.707 21.707C60.5195 21.8945 60.2656 22 60 22L46.5 22C45.5713 22 44.6816 21.6313 44.0254 20.9749C43.3691 20.3186 43 19.4282 43 18.5ZM59 20L59 17L46.5 17C46.1025 17 45.7207 17.158 45.4395 17.4395C45.1582 17.7207 45 18.1023 45 18.5C45 18.8977 45.1582 19.2793 45.4395 19.5605C45.7207 19.842 46.1025 20 46.5 20L59 20ZM50 4L46 4C45.7344 4 45.4805 4.10547 45.293 4.29297C45.1055 4.48047 45 4.73486 45 5L45 15.3369C45.4688 15.1145 45.9814 14.9993 46.5 15L59 15L59 4L57 4L57 12L53.5 10L50 12L50 4Z" fill="#9A9A9A" fill-opacity="1.000000" fill-rule="nonzero"/>
	</g>
</svg>
