<svg width="173.000000" height="34.000000" viewBox="0 0 173 34" fill="none" xmlns="http://www.w3.org/2000/svg" xmlns:xlink="http://www.w3.org/1999/xlink">
	<desc>
			Created with Pixso.
	</desc>
	<defs>
		<clipPath id="clip1041_7404">
			<rect id="star (1) 4" width="24.000000" height="24.000000" transform="translate(0.000000 5.000000)" fill="white" fill-opacity="0"/>
		</clipPath>
	</defs>
	<rect id="star (1) 4" width="24.000000" height="24.000000" transform="translate(0.000000 5.000000)" fill="#FFFFFF" fill-opacity="0"/>
	<g clip-path="url(#clip1041_7404)">
		<path id="Vector" d="M21.3906 16.6001C21.665 16.3193 21.8564 15.9675 21.9434 15.5845C22.0293 15.2012 22.0078 14.8015 21.8809 14.4299C21.7607 14.0574 21.5391 13.7256 21.2402 13.4729C20.9414 13.22 20.5781 13.0562 20.1904 13L15.9004 12.3401C15.8809 12.3342 15.8623 12.324 15.8467 12.3103C15.8311 12.2964 15.8184 12.2793 15.8105 12.26L13.9307 8.26001C13.7656 7.8855 13.4951 7.56689 13.1523 7.34326C12.8096 7.11938 12.4092 7.00024 12 7C11.5957 6.99829 11.1992 7.11353 10.8594 7.33179C10.5186 7.55005 10.248 7.86182 10.0801 8.22998L8.2002 12.23C8.19043 12.2495 8.17578 12.2666 8.15918 12.2805C8.1416 12.2942 8.12207 12.3042 8.10059 12.3101L3.82031 13C3.43262 13.0579 3.06836 13.2222 2.76855 13.4746C2.46777 13.7271 2.24414 14.0579 2.12012 14.4299C1.99805 14.803 1.97949 15.2021 2.06738 15.5847C2.15527 15.9673 2.34668 16.3184 2.62012 16.6001L5.78027 19.8501C5.78906 19.8704 5.79395 19.8926 5.79395 19.915C5.79395 19.9375 5.78906 19.9595 5.78027 19.98L5.04004 24.52C4.97168 24.9153 5.0166 25.3223 5.16992 25.6931C5.32324 26.064 5.57812 26.3838 5.90625 26.6152C6.23438 26.8467 6.62109 26.9805 7.02148 27.0007C7.42285 27.021 7.82129 26.9272 8.1709 26.73L11.9004 24.6599C11.9189 24.6504 11.9395 24.6453 11.96 24.6453C11.9814 24.6453 12.002 24.6504 12.0205 24.6599L15.75 26.73C16.1006 26.9229 16.498 27.0134 16.8965 26.9912C17.2959 26.969 17.6807 26.835 18.0068 26.6045C18.334 26.374 18.5889 26.0564 18.7432 25.6877C18.8975 25.3191 18.9453 24.9143 18.8809 24.52L18.1904 20C18.1797 19.9817 18.1748 19.9612 18.1748 19.9399C18.1748 19.9189 18.1797 19.8982 18.1904 19.8801L21.3906 16.6001Z" fill="#FF754C" fill-opacity="1.000000" fill-rule="nonzero"/>
	</g>
	<path id="4.7" d="M43.9932 20.8198L42.4463 20.8198L42.4463 23.4829L39.792 23.4829L39.792 20.8198L34.3076 20.8198L34.3076 18.9302L39.9414 10.6333L42.4463 10.6333L42.4463 18.7104L43.9932 18.7104L43.9932 20.8198ZM39.792 18.7104L39.792 16.5308C39.792 16.1675 39.8066 15.6401 39.8359 14.9487C39.8652 14.2573 39.8887 13.856 39.9062 13.7446L39.8359 13.7446C39.6191 14.2251 39.3584 14.6938 39.0537 15.1509L36.6982 18.7104L39.792 18.7104ZM45.3115 22.2261C45.3115 21.7339 45.4434 21.3618 45.707 21.1099C45.9707 20.8579 46.3545 20.7319 46.8584 20.7319C47.3447 20.7319 47.7197 20.8608 47.9834 21.1187C48.2529 21.3765 48.3877 21.7456 48.3877 22.2261C48.3877 22.689 48.2529 23.0552 47.9834 23.3247C47.7139 23.5884 47.3389 23.7202 46.8584 23.7202C46.3662 23.7202 45.9854 23.5913 45.7158 23.3335C45.4463 23.0698 45.3115 22.7007 45.3115 22.2261ZM51.4111 23.4829L56.2363 12.936L49.8994 12.936L49.8994 10.6509L59.1191 10.6509L59.1191 12.356L54.2588 23.4829L51.4111 23.4829Z" fill="#FF754C" fill-opacity="1.000000" fill-rule="evenodd"/>
	<path id="244 фиклар" d="M74.3978 23.588L74.3978 22.274L77.7098 18.8C78.2138 18.272 78.6458 17.804 79.0058 17.396C79.3658 16.988 79.6418 16.586 79.8338 16.19C80.0258 15.794 80.1218 15.368 80.1218 14.912C80.1218 14.156 79.9118 13.64 79.4918 13.364C79.0838 13.076 78.4598 12.932 77.6198 12.932C77.3078 12.932 76.9598 12.956 76.5758 13.004C76.2038 13.04 75.8378 13.088 75.4778 13.148C75.1298 13.196 74.8358 13.25 74.5958 13.31L74.4698 12.014C74.7338 11.942 75.0518 11.87 75.4238 11.798C75.7958 11.726 76.2038 11.666 76.6478 11.618C77.0918 11.558 77.5238 11.528 77.9438 11.528C79.2038 11.528 80.1518 11.786 80.7878 12.302C81.4358 12.806 81.7598 13.616 81.7598 14.732C81.7598 15.32 81.6638 15.854 81.4718 16.334C81.2918 16.802 81.0158 17.258 80.6438 17.702C80.2838 18.146 79.8158 18.644 79.2398 19.196L76.2338 22.22L82.0298 22.22L82.0298 23.588L74.3978 23.588ZM89.6005 23.588L89.6005 21.338L83.9305 21.338L83.9305 20.114L87.2065 11.708L88.9525 11.708L85.5685 19.934L89.6005 19.934L89.6185 16.352L91.1845 16.352L91.1845 19.934L92.6245 19.934L92.6245 21.338L91.1845 21.338L91.1845 23.588L89.6005 23.588ZM99.6552 23.588L99.6552 21.338L93.9852 21.338L93.9852 20.114L97.2612 11.708L99.0072 11.708L95.6232 19.934L99.6552 19.934L99.6732 16.352L101.239 16.352L101.239 19.934L102.679 19.934L102.679 21.338L101.239 21.338L101.239 23.588L99.6552 23.588ZM114.583 13.796C115.543 13.88 116.377 14.132 117.085 14.552C117.805 14.972 118.363 15.536 118.759 16.244C119.155 16.952 119.353 17.792 119.353 18.764C119.353 19.736 119.161 20.582 118.777 21.302C118.393 22.01 117.847 22.574 117.139 22.994C116.431 23.402 115.579 23.648 114.583 23.732L114.583 27.908L113.035 27.908L113.035 23.732C112.087 23.648 111.253 23.402 110.533 22.994C109.813 22.574 109.255 22.01 108.859 21.302C108.463 20.582 108.265 19.736 108.265 18.764C108.265 17.78 108.457 16.934 108.841 16.226C109.225 15.506 109.777 14.942 110.497 14.534C111.217 14.114 112.081 13.868 113.089 13.796L113.089 9.908L114.583 9.908L114.583 13.796ZM113.089 15.11C112.357 15.182 111.757 15.368 111.289 15.668C110.821 15.968 110.473 16.376 110.245 16.892C110.029 17.408 109.921 18.032 109.921 18.764C109.921 19.484 110.029 20.108 110.245 20.636C110.473 21.152 110.821 21.566 111.289 21.878C111.757 22.178 112.357 22.364 113.089 22.436L113.089 15.11ZM114.583 22.436C115.303 22.352 115.891 22.16 116.347 21.86C116.815 21.56 117.157 21.152 117.373 20.636C117.601 20.108 117.715 19.484 117.715 18.764C117.715 18.044 117.601 17.426 117.373 16.91C117.145 16.394 116.797 15.986 116.329 15.686C115.873 15.386 115.291 15.2 114.583 15.128L114.583 22.436ZM123.36 19.826C123.36 19.934 123.354 20.09 123.342 20.294C123.342 20.486 123.336 20.696 123.324 20.924C123.312 21.14 123.3 21.35 123.288 21.554C123.276 21.746 123.264 21.902 123.252 22.022L128.418 13.94L130.362 13.94L130.362 23.588L128.886 23.588L128.886 17.9C128.886 17.708 128.886 17.456 128.886 17.144C128.898 16.832 128.91 16.526 128.922 16.226C128.934 15.914 128.946 15.68 128.958 15.524L123.828 23.588L121.866 23.588L121.866 13.94L123.36 13.94L123.36 19.826ZM139.138 13.94L140.866 13.94L136.744 18.584L141.208 23.588L139.372 23.588L135.016 18.692L135.016 23.588L133.432 23.588L133.432 13.94L135.016 13.94L135.016 18.62L139.138 13.94ZM150.304 23.588L148.702 23.588L148.702 15.254L145.858 15.254C145.738 16.778 145.588 18.08 145.408 19.16C145.228 20.228 145 21.098 144.724 21.77C144.448 22.442 144.118 22.934 143.734 23.246C143.35 23.558 142.9 23.714 142.384 23.714C142.228 23.714 142.072 23.702 141.916 23.678C141.772 23.666 141.652 23.636 141.556 23.588L141.556 22.4C141.628 22.424 141.706 22.442 141.79 22.454C141.874 22.466 141.958 22.472 142.042 22.472C142.306 22.472 142.546 22.364 142.762 22.148C142.978 21.932 143.17 21.602 143.338 21.158C143.518 20.714 143.68 20.156 143.824 19.484C143.968 18.8 144.094 17.996 144.202 17.072C144.31 16.148 144.406 15.104 144.49 13.94L150.304 13.94L150.304 23.588ZM157.02 13.778C158.196 13.778 159.066 14.036 159.63 14.552C160.194 15.068 160.476 15.89 160.476 17.018L160.476 23.588L159.324 23.588L159.018 22.22L158.946 22.22C158.67 22.568 158.382 22.862 158.082 23.102C157.794 23.33 157.458 23.498 157.074 23.606C156.702 23.714 156.246 23.768 155.706 23.768C155.13 23.768 154.608 23.666 154.14 23.462C153.684 23.258 153.324 22.946 153.06 22.526C152.796 22.094 152.664 21.554 152.664 20.906C152.664 19.946 153.042 19.208 153.798 18.692C154.554 18.164 155.718 17.876 157.29 17.828L158.928 17.774L158.928 17.198C158.928 16.394 158.754 15.836 158.406 15.524C158.058 15.212 157.566 15.056 156.93 15.056C156.426 15.056 155.946 15.134 155.49 15.29C155.034 15.434 154.608 15.602 154.212 15.794L153.726 14.606C154.146 14.378 154.644 14.186 155.22 14.03C155.796 13.862 156.396 13.778 157.02 13.778ZM157.488 18.926C156.288 18.974 155.454 19.166 154.986 19.502C154.53 19.838 154.302 20.312 154.302 20.924C154.302 21.464 154.464 21.86 154.788 22.112C155.124 22.364 155.55 22.49 156.066 22.49C156.882 22.49 157.56 22.268 158.1 21.824C158.64 21.368 158.91 20.672 158.91 19.736L158.91 18.872L157.488 18.926ZM168.046 13.76C169.234 13.76 170.188 14.174 170.908 15.002C171.64 15.83 172.006 17.078 172.006 18.746C172.006 19.838 171.838 20.762 171.502 21.518C171.178 22.262 170.716 22.826 170.116 23.21C169.528 23.582 168.832 23.768 168.028 23.768C167.536 23.768 167.098 23.702 166.714 23.57C166.33 23.438 166 23.27 165.724 23.066C165.46 22.85 165.232 22.616 165.04 22.364L164.932 22.364C164.956 22.568 164.98 22.826 165.004 23.138C165.028 23.45 165.04 23.72 165.04 23.948L165.04 27.908L163.456 27.908L163.456 13.94L164.752 13.94L164.968 15.254L165.04 15.254C165.232 14.978 165.46 14.726 165.724 14.498C166 14.27 166.324 14.09 166.696 13.958C167.08 13.826 167.53 13.76 168.046 13.76ZM167.758 15.092C167.11 15.092 166.588 15.218 166.192 15.47C165.796 15.71 165.508 16.076 165.328 16.568C165.148 17.06 165.052 17.684 165.04 18.44L165.04 18.746C165.04 19.538 165.124 20.21 165.292 20.762C165.46 21.314 165.742 21.734 166.138 22.022C166.546 22.31 167.098 22.454 167.794 22.454C168.382 22.454 168.862 22.292 169.234 21.968C169.618 21.644 169.9 21.206 170.08 20.654C170.272 20.09 170.368 19.448 170.368 18.728C170.368 17.624 170.152 16.742 169.72 16.082C169.3 15.422 168.646 15.092 167.758 15.092Z" fill="#AAAAAA" fill-opacity="1.000000" fill-rule="evenodd"/>
</svg>
