<svg width="207.000000" height="45.000000" viewBox="0 0 207 45" fill="none" xmlns="http://www.w3.org/2000/svg" xmlns:xlink="http://www.w3.org/1999/xlink">
	<desc>
			Created with Pixso.
	</desc>
	<defs>
		<clipPath id="clip1041_7225">
			<rect id="star (1) 1" width="24.000000" height="24.000000" transform="translate(0.000000 11.000000)" fill="white" fill-opacity="0"/>
		</clipPath>
		<clipPath id="clip1041_7227">
			<rect id="star (1) 2" width="24.000000" height="24.000000" transform="translate(32.000000 11.000000)" fill="white" fill-opacity="0"/>
		</clipPath>
		<clipPath id="clip1041_7229">
			<rect id="star (1) 3" width="24.000000" height="24.000000" transform="translate(64.000000 11.000000)" fill="white" fill-opacity="0"/>
		</clipPath>
		<clipPath id="clip1041_7231">
			<rect id="star (1) 4" width="24.000000" height="24.000000" transform="translate(96.000000 11.000000)" fill="white" fill-opacity="0"/>
		</clipPath>
		<clipPath id="clip1041_7233">
			<rect id="star (1) 5" width="24.000000" height="24.000000" transform="translate(128.000000 11.000000)" fill="white" fill-opacity="0"/>
		</clipPath>
	</defs>
	<rect id="star (1) 1" width="24.000000" height="24.000000" transform="translate(0.000000 11.000000)" fill="#FFFFFF" fill-opacity="0"/>
	<g clip-path="url(#clip1041_7225)">
		<path id="Vector" d="M21.3906 22.6001C21.665 22.3193 21.8564 21.9675 21.9434 21.5845C22.0293 21.2012 22.0078 20.8015 21.8809 20.4299C21.7607 20.0574 21.5391 19.7256 21.2402 19.4729C20.9414 19.22 20.5781 19.0562 20.1904 19L15.9004 18.3401C15.8809 18.3342 15.8623 18.324 15.8467 18.3103C15.8311 18.2964 15.8184 18.2793 15.8105 18.26L13.9307 14.26C13.7656 13.8855 13.4951 13.5669 13.1523 13.3433C12.8096 13.1194 12.4092 13.0002 12 13C11.5957 12.9983 11.1992 13.1135 10.8594 13.3318C10.5186 13.55 10.248 13.8618 10.0801 14.23L8.2002 18.23C8.19043 18.2495 8.17578 18.2666 8.15918 18.2805C8.1416 18.2942 8.12207 18.3042 8.10059 18.3101L3.82031 19C3.43262 19.0579 3.06836 19.2222 2.76855 19.4746C2.46777 19.7271 2.24414 20.0579 2.12012 20.4299C1.99805 20.803 1.97949 21.2021 2.06738 21.5847C2.15527 21.9673 2.34668 22.3184 2.62012 22.6001L5.78027 25.8501C5.78906 25.8704 5.79395 25.8926 5.79395 25.915C5.79395 25.9375 5.78906 25.9595 5.78027 25.98L5.04004 30.52C4.97168 30.9153 5.0166 31.3223 5.16992 31.6931C5.32324 32.064 5.57812 32.3838 5.90625 32.6152C6.23438 32.8467 6.62109 32.9805 7.02148 33.0007C7.42285 33.021 7.82129 32.9272 8.1709 32.73L11.9004 30.6599C11.9189 30.6504 11.9395 30.6453 11.96 30.6453C11.9814 30.6453 12.002 30.6504 12.0205 30.6599L15.75 32.73C16.1006 32.9229 16.498 33.0134 16.8965 32.9912C17.2959 32.969 17.6807 32.835 18.0068 32.6045C18.334 32.374 18.5889 32.0564 18.7432 31.6877C18.8975 31.3191 18.9453 30.9143 18.8809 30.52L18.1904 26C18.1797 25.9817 18.1748 25.9612 18.1748 25.9399C18.1748 25.9189 18.1797 25.8982 18.1904 25.8801L21.3906 22.6001Z" fill="#FF7F4D" fill-opacity="1.000000" fill-rule="nonzero"/>
	</g>
	<rect id="star (1) 2" width="24.000000" height="24.000000" transform="translate(32.000000 11.000000)" fill="#FFFFFF" fill-opacity="0"/>
	<g clip-path="url(#clip1041_7227)">
		<path id="Vector" d="M53.3906 22.6001C53.665 22.3193 53.8564 21.9675 53.9434 21.5845C54.0293 21.2012 54.0078 20.8015 53.8809 20.4299C53.7607 20.0574 53.5391 19.7256 53.2402 19.4729C52.9414 19.22 52.5781 19.0562 52.1904 19L47.9004 18.3401C47.8809 18.3342 47.8623 18.324 47.8467 18.3103C47.8311 18.2964 47.8184 18.2793 47.8105 18.26L45.9307 14.26C45.7656 13.8855 45.4951 13.5669 45.1523 13.3433C44.8096 13.1194 44.4092 13.0002 44 13C43.5957 12.9983 43.1992 13.1135 42.8594 13.3318C42.5186 13.55 42.248 13.8618 42.0801 14.23L40.2002 18.23C40.1904 18.2495 40.1758 18.2666 40.1592 18.2805C40.1416 18.2942 40.1221 18.3042 40.1006 18.3101L35.8203 19C35.4326 19.0579 35.0684 19.2222 34.7686 19.4746C34.4678 19.7271 34.2441 20.0579 34.1201 20.4299C33.998 20.803 33.9795 21.2021 34.0674 21.5847C34.1553 21.9673 34.3467 22.3184 34.6201 22.6001L37.7803 25.8501C37.7891 25.8704 37.7939 25.8926 37.7939 25.915C37.7939 25.9375 37.7891 25.9595 37.7803 25.98L37.04 30.52C36.9717 30.9153 37.0166 31.3223 37.1699 31.6931C37.3232 32.064 37.5781 32.3838 37.9062 32.6152C38.2344 32.8467 38.6211 32.9805 39.0215 33.0007C39.4229 33.021 39.8213 32.9272 40.1709 32.73L43.9004 30.6599C43.9189 30.6504 43.9395 30.6453 43.96 30.6453C43.9814 30.6453 44.002 30.6504 44.0205 30.6599L47.75 32.73C48.1006 32.9229 48.498 33.0134 48.8965 32.9912C49.2959 32.969 49.6807 32.835 50.0068 32.6045C50.334 32.374 50.5889 32.0564 50.7432 31.6877C50.8975 31.3191 50.9453 30.9143 50.8809 30.52L50.1904 26C50.1797 25.9817 50.1748 25.9612 50.1748 25.9399C50.1748 25.9189 50.1797 25.8982 50.1904 25.8801L53.3906 22.6001Z" fill="#FF7F4D" fill-opacity="1.000000" fill-rule="nonzero"/>
	</g>
	<rect id="star (1) 3" width="24.000000" height="24.000000" transform="translate(64.000000 11.000000)" fill="#FFFFFF" fill-opacity="0"/>
	<g clip-path="url(#clip1041_7229)">
		<path id="Vector" d="M85.3906 22.6001C85.665 22.3193 85.8564 21.9675 85.9434 21.5845C86.0293 21.2012 86.0078 20.8015 85.8809 20.4299C85.7607 20.0574 85.5391 19.7256 85.2402 19.4729C84.9414 19.22 84.5781 19.0562 84.1904 19L79.9004 18.3401C79.8809 18.3342 79.8623 18.324 79.8467 18.3103C79.8311 18.2964 79.8184 18.2793 79.8105 18.26L77.9307 14.26C77.7656 13.8855 77.4951 13.5669 77.1523 13.3433C76.8096 13.1194 76.4092 13.0002 76 13C75.5957 12.9983 75.1992 13.1135 74.8594 13.3318C74.5186 13.55 74.248 13.8618 74.0801 14.23L72.2002 18.23C72.1904 18.2495 72.1758 18.2666 72.1592 18.2805C72.1416 18.2942 72.1221 18.3042 72.1006 18.3101L67.8203 19C67.4326 19.0579 67.0684 19.2222 66.7686 19.4746C66.4678 19.7271 66.2441 20.0579 66.1201 20.4299C65.998 20.803 65.9795 21.2021 66.0674 21.5847C66.1553 21.9673 66.3467 22.3184 66.6201 22.6001L69.7803 25.8501C69.7891 25.8704 69.7939 25.8926 69.7939 25.915C69.7939 25.9375 69.7891 25.9595 69.7803 25.98L69.04 30.52C68.9717 30.9153 69.0166 31.3223 69.1699 31.6931C69.3232 32.064 69.5781 32.3838 69.9062 32.6152C70.2344 32.8467 70.6211 32.9805 71.0215 33.0007C71.4229 33.021 71.8213 32.9272 72.1709 32.73L75.9004 30.6599C75.9189 30.6504 75.9395 30.6453 75.96 30.6453C75.9814 30.6453 76.002 30.6504 76.0205 30.6599L79.75 32.73C80.1006 32.9229 80.498 33.0134 80.8965 32.9912C81.2959 32.969 81.6807 32.835 82.0068 32.6045C82.334 32.374 82.5889 32.0564 82.7432 31.6877C82.8975 31.3191 82.9453 30.9143 82.8809 30.52L82.1904 26C82.1797 25.9817 82.1748 25.9612 82.1748 25.9399C82.1748 25.9189 82.1797 25.8982 82.1904 25.8801L85.3906 22.6001Z" fill="#FF7F4D" fill-opacity="1.000000" fill-rule="nonzero"/>
	</g>
	<rect id="star (1) 4" width="24.000000" height="24.000000" transform="translate(96.000000 11.000000)" fill="#FFFFFF" fill-opacity="0"/>
	<g clip-path="url(#clip1041_7231)">
		<path id="Vector" d="M117.391 22.6001C117.665 22.3193 117.856 21.9675 117.943 21.5845C118.029 21.2012 118.008 20.8015 117.881 20.4299C117.761 20.0574 117.539 19.7256 117.24 19.4729C116.941 19.22 116.578 19.0562 116.19 19L111.9 18.3401C111.881 18.3342 111.862 18.324 111.847 18.3103C111.831 18.2964 111.818 18.2793 111.811 18.26L109.931 14.26C109.766 13.8855 109.495 13.5669 109.152 13.3433C108.81 13.1194 108.409 13.0002 108 13C107.596 12.9983 107.199 13.1135 106.859 13.3318C106.519 13.55 106.248 13.8618 106.08 14.23L104.2 18.23C104.19 18.2495 104.176 18.2666 104.159 18.2805C104.142 18.2942 104.122 18.3042 104.101 18.3101L99.8203 19C99.4326 19.0579 99.0684 19.2222 98.7686 19.4746C98.4678 19.7271 98.2441 20.0579 98.1201 20.4299C97.998 20.803 97.9795 21.2021 98.0674 21.5847C98.1553 21.9673 98.3467 22.3184 98.6201 22.6001L101.78 25.8501C101.789 25.8704 101.794 25.8926 101.794 25.915C101.794 25.9375 101.789 25.9595 101.78 25.98L101.04 30.52C100.972 30.9153 101.017 31.3223 101.17 31.6931C101.323 32.064 101.578 32.3838 101.906 32.6152C102.234 32.8467 102.621 32.9805 103.021 33.0007C103.423 33.021 103.821 32.9272 104.171 32.73L107.9 30.6599C107.919 30.6504 107.939 30.6453 107.96 30.6453C107.981 30.6453 108.002 30.6504 108.021 30.6599L111.75 32.73C112.101 32.9229 112.498 33.0134 112.896 32.9912C113.296 32.969 113.681 32.835 114.007 32.6045C114.334 32.374 114.589 32.0564 114.743 31.6877C114.897 31.3191 114.945 30.9143 114.881 30.52L114.19 26C114.18 25.9817 114.175 25.9612 114.175 25.9399C114.175 25.9189 114.18 25.8982 114.19 25.8801L117.391 22.6001Z" fill="#FF7F4D" fill-opacity="1.000000" fill-rule="nonzero"/>
	</g>
	<rect id="star (1) 5" width="24.000000" height="24.000000" transform="translate(128.000000 11.000000)" fill="#FFFFFF" fill-opacity="0"/>
	<g clip-path="url(#clip1041_7233)">
		<path id="Vector" d="M149.391 22.6001C149.665 22.3193 149.856 21.9675 149.943 21.5845C150.029 21.2012 150.008 20.8015 149.881 20.4299C149.761 20.0574 149.539 19.7256 149.24 19.4729C148.941 19.22 148.578 19.0562 148.19 19L143.9 18.3401C143.881 18.3342 143.862 18.324 143.847 18.3103C143.831 18.2964 143.818 18.2793 143.811 18.26L141.931 14.26C141.766 13.8855 141.495 13.5669 141.152 13.3433C140.81 13.1194 140.409 13.0002 140 13C139.596 12.9983 139.199 13.1135 138.859 13.3318C138.519 13.55 138.248 13.8618 138.08 14.23L136.2 18.23C136.19 18.2495 136.176 18.2666 136.159 18.2805C136.142 18.2942 136.122 18.3042 136.101 18.3101L131.82 19C131.433 19.0579 131.068 19.2222 130.769 19.4746C130.468 19.7271 130.244 20.0579 130.12 20.4299C129.998 20.803 129.979 21.2021 130.067 21.5847C130.155 21.9673 130.347 22.3184 130.62 22.6001L133.78 25.8501C133.789 25.8704 133.794 25.8926 133.794 25.915C133.794 25.9375 133.789 25.9595 133.78 25.98L133.04 30.52C132.972 30.9153 133.017 31.3223 133.17 31.6931C133.323 32.064 133.578 32.3838 133.906 32.6152C134.234 32.8467 134.621 32.9805 135.021 33.0007C135.423 33.021 135.821 32.9272 136.171 32.73L139.9 30.6599C139.919 30.6504 139.939 30.6453 139.96 30.6453C139.981 30.6453 140.002 30.6504 140.021 30.6599L143.75 32.73C144.101 32.9229 144.498 33.0134 144.896 32.9912C145.296 32.969 145.681 32.835 146.007 32.6045C146.334 32.374 146.589 32.0564 146.743 31.6877C146.897 31.3191 146.945 30.9143 146.881 30.52L146.19 26C146.18 25.9817 146.175 25.9612 146.175 25.9399C146.175 25.9189 146.18 25.8982 146.19 25.8801L149.391 22.6001Z" fill="#F5F5F5" fill-opacity="1.000000" fill-rule="nonzero"/>
	</g>
	<path id="4.0" d="M182.484 31.284L182.484 28.644L175.284 28.644L175.284 26.244L178.884 15.444L182.58 15.444L178.572 25.884L182.484 25.884L182.676 21.804L185.748 21.756L185.748 25.884L187.212 25.884L187.212 28.644L185.748 28.644L185.748 31.284L182.484 31.284ZM189.1 31.284L189.1 27.732L192.436 27.732L192.436 31.284L189.1 31.284ZM200.336 31.548C199.312 31.548 198.424 31.412 197.672 31.14C196.92 30.852 196.296 30.396 195.8 29.772C195.32 29.132 194.952 28.3 194.696 27.276C194.456 26.252 194.336 24.996 194.336 23.508C194.336 21.972 194.456 20.668 194.696 19.596C194.952 18.524 195.328 17.668 195.824 17.028C196.32 16.372 196.936 15.9 197.672 15.612C198.424 15.324 199.304 15.18 200.312 15.18C201.352 15.18 202.248 15.324 203 15.612C203.752 15.9 204.368 16.372 204.848 17.028C205.344 17.668 205.704 18.524 205.928 19.596C206.168 20.652 206.288 21.956 206.288 23.508C206.288 25.476 206.072 27.052 205.64 28.236C205.224 29.404 204.576 30.252 203.696 30.78C202.816 31.292 201.696 31.548 200.336 31.548ZM200.336 28.764C200.784 28.764 201.168 28.692 201.488 28.548C201.824 28.388 202.104 28.116 202.328 27.732C202.552 27.348 202.712 26.812 202.808 26.124C202.92 25.436 202.976 24.564 202.976 23.508C202.976 22.388 202.92 21.468 202.808 20.748C202.712 20.028 202.56 19.468 202.352 19.068C202.144 18.652 201.872 18.364 201.536 18.204C201.2 18.028 200.8 17.94 200.336 17.94C199.872 17.94 199.472 18.028 199.136 18.204C198.8 18.364 198.52 18.644 198.296 19.044C198.088 19.444 197.928 20.012 197.816 20.748C197.704 21.468 197.648 22.396 197.648 23.532C197.648 24.588 197.704 25.46 197.816 26.148C197.944 26.836 198.12 27.372 198.344 27.756C198.568 28.124 198.84 28.388 199.16 28.548C199.496 28.692 199.888 28.764 200.336 28.764Z" fill="#242424" fill-opacity="1.000000" fill-rule="evenodd"/>
</svg>
