<svg width="906.000000" height="98.000000" viewBox="0 0 906 98" fill="none" xmlns="http://www.w3.org/2000/svg" xmlns:xlink="http://www.w3.org/1999/xlink">
	<desc>
			Created with Pixso.
	</desc>
	<defs>
		<clipPath id="clip1089_7820">
			<rect id="Wallet 1" width="82.832077" height="82.832077" transform="translate(820.607422 39.634521) rotate(-16.632414)" fill="white" fill-opacity="0"/>
		</clipPath>
	</defs>
	<rect id="Rectangle 466" rx="20.000000" width="906.000000" height="98.000000" fill="#3F51B5" fill-opacity="1.000000"/>
	<mask id="mask1089_7818" mask-type="alpha" maskUnits="userSpaceOnUse" x="825.000000" y="13.000000" width="80.663086" height="85.000000">
		<rect id="Rectangle 469" x="825.000000" y="13.000000" rx="20.000000" width="80.663269" height="85.000000" fill="#3F51B5" fill-opacity="1.000000"/>
	</mask>
	<g mask="url(#mask1089_7818)">
		<rect id="Wallet 1" width="82.832077" height="82.832077" transform="translate(820.607422 39.634521) rotate(-16.632414)" fill="#FFFFFF" fill-opacity="0"/>
		<g clip-path="url(#clip1089_7820)">
			<path id="Vector" d="M854.262 45.8812C859.735 45.176 864.744 49.041 865.449 54.5139C866.154 59.9871 862.289 64.9954 856.816 65.7007C851.343 66.4058 846.334 62.5408 845.629 57.0679C844.924 51.5948 848.789 46.5864 854.262 45.8812Z" fill="#D49100" fill-opacity="1.000000" fill-rule="evenodd"/>
			<path id="Vector" d="M864.727 51.6296C866.307 56.917 863.301 62.4836 858.014 64.0632C852.726 65.6426 847.16 62.6367 845.58 57.3494C844 52.062 847.006 46.4955 852.294 44.916C857.581 43.3365 863.148 46.3423 864.727 51.6296Z" fill="#FFC60B" fill-opacity="1.000000" fill-rule="evenodd"/>
			<path id="Vector" d="M862.247 52.3706C863.417 56.2881 861.19 60.4126 857.273 61.583C853.355 62.7532 849.23 60.5261 848.061 56.6084C846.89 52.6909 849.117 48.5664 853.035 47.3961C856.952 46.2258 861.077 48.453 862.247 52.3706Z" fill="#E89F00" fill-opacity="1.000000" fill-rule="evenodd"/>
			<path id="Vector" d="M853.317 48.3418C855.117 47.8024 857.055 47.9679 858.737 48.8049C860.419 49.6418 861.721 51.0875 862.376 52.8486C862.341 52.6858 862.3 52.5259 862.253 52.3687C861.991 51.4186 861.542 50.5304 860.932 49.7562C860.321 48.9821 859.563 48.3373 858.701 47.86C857.838 47.3827 856.89 47.0823 855.91 46.9763C854.93 46.8705 853.938 46.9612 852.994 47.2434C852.049 47.5255 851.171 47.9933 850.41 48.6193C849.648 49.2454 849.02 50.0171 848.561 50.8892C848.101 51.7614 847.821 52.7163 847.735 53.6982C847.65 54.6802 847.761 55.6694 848.063 56.6077C848.11 56.7656 848.156 56.9177 848.224 57.0764C847.807 55.2461 848.101 53.3257 849.047 51.7041C849.992 50.0824 851.519 48.8806 853.317 48.3418Z" fill="#D49100" fill-opacity="1.000000" fill-rule="nonzero"/>
			<path id="Vector" d="M885.611 32.0657C887.19 37.353 884.185 42.9197 878.897 44.4991C873.61 46.0786 868.043 43.0729 866.464 37.7855C864.884 32.4982 867.89 26.9315 873.178 25.3521C878.465 23.7726 884.032 26.7783 885.611 32.0657Z" fill="#D49100" fill-opacity="1.000000" fill-rule="evenodd"/>
			<path id="Vector" d="M883.396 27.3147C886.879 31.5951 886.232 37.8883 881.952 41.371C877.671 44.8536 871.378 44.2068 867.896 39.9264C864.413 35.646 865.06 29.3528 869.34 25.8701C873.621 22.3876 879.914 23.0343 883.396 27.3147Z" fill="#FFC60B" fill-opacity="1.000000" fill-rule="evenodd"/>
			<path id="Vector" d="M881.389 28.9486C883.969 32.1201 883.49 36.783 880.318 39.3634C877.147 41.9437 872.484 41.4646 869.904 38.2931C867.323 35.1216 867.802 30.4587 870.974 27.8783C874.146 25.298 878.808 25.7771 881.389 28.9486Z" fill="#E89F00" fill-opacity="1.000000" fill-rule="evenodd"/>
			<path id="Vector" d="M873.812 27.4755C875.611 26.9379 877.547 27.1041 879.229 27.9406C880.91 28.7769 882.21 30.2208 882.867 31.9801C882.82 31.822 882.793 31.6646 882.744 31.5002C882.151 29.6559 880.858 28.1173 879.144 27.2146C877.43 26.3119 875.43 26.1169 873.573 26.6715C871.717 27.2261 870.152 28.4861 869.213 30.1812C868.275 31.8762 868.039 33.8716 868.554 35.7391C868.602 35.9004 868.647 36.0492 868.714 36.208C868.299 34.3773 868.594 32.4572 869.54 30.8359C870.486 29.2146 872.013 28.0135 873.812 27.4755Z" fill="#D49100" fill-opacity="1.000000" fill-rule="nonzero"/>
			<path id="Vector" d="M893.614 43.7089L836.836 60.6702C836.019 60.9143 835.258 61.3171 834.596 61.8555C833.935 62.394 833.385 63.0576 832.98 63.8083C832.575 64.5591 832.322 65.3821 832.235 66.2307C832.148 67.0793 832.229 67.9368 832.474 68.7542L846.472 115.611C846.278 114.962 846.342 114.263 846.652 113.66C846.961 113.057 847.492 112.597 848.132 112.376L908.724 94.2761C910.374 93.7832 911.761 92.6548 912.579 91.1394C913.397 89.6238 913.58 87.8455 913.087 86.1951L901.699 48.0745C901.206 46.4233 900.077 45.0359 898.561 44.2172C897.045 43.3984 895.266 43.2156 893.614 43.7089Z" fill="#00AEEF" fill-opacity="1.000000" fill-rule="nonzero"/>
			<path id="Vector" d="M904.316 92.635L900.255 93.8481C900.164 93.8821 900.068 93.897 899.971 93.8918C899.875 93.887 899.78 93.8623 899.694 93.8191C899.607 93.7761 899.53 93.7158 899.468 93.6418C899.406 93.5679 899.359 93.4819 899.332 93.3894C899.304 93.2969 899.296 93.1995 899.307 93.1035C899.319 93.0076 899.35 92.915 899.399 92.8315C899.447 92.748 899.513 92.6755 899.591 92.6184C899.669 92.5613 899.758 92.521 899.852 92.4995L903.882 91.2957C904.062 91.2407 904.257 91.2595 904.424 91.3474C904.591 91.4355 904.716 91.5859 904.772 91.7659C904.8 91.8528 904.811 91.9446 904.802 92.0354C904.794 92.1265 904.769 92.2148 904.726 92.2959C904.684 92.3767 904.625 92.4482 904.555 92.5066C904.485 92.5647 904.403 92.6084 904.316 92.635ZM896.193 95.0613L892.16 96.2664C892.069 96.3 891.973 96.3152 891.876 96.3101C891.78 96.3052 891.686 96.2803 891.599 96.2373C891.512 96.1943 891.436 96.134 891.374 96.0601C891.311 95.9861 891.265 95.9001 891.237 95.8076C891.209 95.7148 891.201 95.6177 891.212 95.5217C891.224 95.4258 891.255 95.3333 891.304 95.2498C891.353 95.1663 891.418 95.0938 891.496 95.0366C891.574 94.9795 891.663 94.939 891.757 94.9177L895.803 93.709C895.894 93.6753 895.99 93.6604 896.086 93.6653C896.183 93.6702 896.278 93.6951 896.364 93.738C896.451 93.781 896.527 93.8413 896.59 93.9153C896.652 93.9893 896.698 94.0752 896.726 94.1677C896.754 94.2605 896.762 94.3577 896.75 94.4536C896.739 94.5496 896.708 94.6423 896.659 94.7256C896.61 94.8091 896.545 94.8816 896.467 94.9387C896.389 94.9958 896.3 95.0364 896.206 95.0576L896.193 95.0613ZM888.099 97.4795L884.068 98.6836C883.978 98.7173 883.881 98.7322 883.785 98.7273C883.688 98.7224 883.594 98.6975 883.507 98.6545C883.421 98.6116 883.344 98.5513 883.282 98.4773C883.219 98.4033 883.173 98.3174 883.146 98.2249C883.118 98.1321 883.109 98.0349 883.121 97.939C883.132 97.843 883.164 97.7502 883.212 97.667C883.261 97.5835 883.327 97.511 883.404 97.4539C883.482 97.3967 883.571 97.3562 883.666 97.335L887.696 96.1309C887.787 96.0972 887.883 96.082 887.979 96.0872C888.076 96.092 888.17 96.1169 888.257 96.1599C888.344 96.2029 888.42 96.2632 888.482 96.3372C888.545 96.4111 888.591 96.4971 888.619 96.5896C888.646 96.6824 888.655 96.7795 888.644 96.8755C888.632 96.9714 888.601 97.064 888.552 97.1475C888.503 97.231 888.438 97.3035 888.36 97.3606C888.282 97.4177 888.193 97.4583 888.099 97.4795ZM880.004 99.8977L875.971 101.103C875.88 101.136 875.784 101.151 875.687 101.146C875.59 101.141 875.496 101.117 875.41 101.073C875.323 101.031 875.246 100.97 875.184 100.896C875.122 100.822 875.075 100.736 875.047 100.644C875.02 100.551 875.012 100.454 875.023 100.358C875.035 100.262 875.065 100.169 875.114 100.086C875.163 100.002 875.229 99.9299 875.307 99.8728C875.385 99.8157 875.474 99.7754 875.568 99.7539L879.613 98.5454C879.704 98.5115 879.801 98.4966 879.897 98.5015C879.994 98.5066 880.088 98.5312 880.175 98.5742C880.261 98.6174 880.338 98.6777 880.4 98.7517C880.462 98.8254 880.509 98.9114 880.537 99.0042C880.564 99.0967 880.573 99.1941 880.561 99.29C880.549 99.386 880.519 99.4785 880.47 99.562C880.421 99.6455 880.355 99.718 880.277 99.7751C880.2 99.832 880.111 99.8726 880.017 99.894L880.004 99.8977ZM871.909 102.316L867.876 103.521C867.785 103.555 867.689 103.57 867.592 103.564C867.496 103.56 867.401 103.535 867.314 103.492C867.228 103.449 867.151 103.388 867.089 103.314C867.027 103.24 866.98 103.155 866.953 103.062C866.925 102.969 866.917 102.872 866.928 102.776C866.94 102.68 866.971 102.588 867.02 102.504C867.068 102.421 867.134 102.348 867.212 102.291C867.29 102.234 867.379 102.193 867.473 102.172L871.519 100.963C871.609 100.93 871.706 100.915 871.802 100.92C871.899 100.925 871.993 100.949 872.08 100.992C872.167 101.035 872.243 101.096 872.306 101.17C872.368 101.244 872.414 101.33 872.442 101.422C872.469 101.515 872.478 101.612 872.466 101.708C872.455 101.804 872.424 101.897 872.375 101.98C872.326 102.063 872.261 102.136 872.183 102.193C872.105 102.25 872.016 102.291 871.922 102.312L871.909 102.316ZM863.827 104.73L859.781 105.939C859.69 105.973 859.594 105.988 859.498 105.983C859.401 105.978 859.307 105.953 859.22 105.91C859.133 105.867 859.057 105.806 858.994 105.733C858.932 105.659 858.886 105.573 858.858 105.48C858.831 105.387 858.822 105.29 858.833 105.194C858.845 105.098 858.876 105.006 858.925 104.922C858.974 104.839 859.039 104.766 859.117 104.709C859.195 104.652 859.284 104.612 859.378 104.59L863.424 103.382C863.515 103.348 863.611 103.333 863.708 103.338C863.804 103.343 863.898 103.368 863.985 103.411C864.072 103.454 864.148 103.514 864.211 103.588C864.273 103.662 864.319 103.748 864.347 103.84C864.375 103.933 864.383 104.03 864.372 104.126C864.36 104.222 864.329 104.315 864.28 104.398C864.231 104.482 864.166 104.554 864.088 104.611C864.01 104.668 863.921 104.709 863.827 104.73ZM855.732 107.148L851.702 108.352C851.611 108.386 851.515 108.401 851.418 108.396C851.322 108.391 851.227 108.366 851.141 108.323C851.054 108.28 850.978 108.22 850.915 108.146C850.853 108.072 850.807 107.986 850.779 107.894C850.751 107.801 850.743 107.704 850.754 107.608C850.766 107.512 850.797 107.419 850.846 107.336C850.895 107.252 850.96 107.18 851.038 107.123C851.116 107.066 851.205 107.025 851.299 107.004L855.329 105.8C855.42 105.766 855.516 105.751 855.613 105.756C855.709 105.761 855.804 105.786 855.89 105.829C855.977 105.872 856.054 105.932 856.116 106.006C856.178 106.08 856.225 106.166 856.252 106.259C856.28 106.351 856.288 106.448 856.277 106.544C856.265 106.64 856.234 106.733 856.186 106.816C856.137 106.9 856.071 106.972 855.993 107.03C855.915 107.087 855.826 107.127 855.732 107.148ZM907.756 90.2566C907.613 90.2996 907.461 90.2961 907.32 90.2471C907.18 90.198 907.058 90.1055 906.974 89.9832C906.889 89.8608 906.845 89.7148 906.848 89.5659C906.851 89.4172 906.901 89.2732 906.991 89.1545C907.759 88.1418 908.189 86.9136 908.222 85.6431C908.219 85.5476 908.236 85.4524 908.271 85.3638C908.307 85.2749 908.36 85.1943 908.428 85.1267C908.496 85.0591 908.576 85.0059 908.665 84.9705C908.753 84.9351 908.849 84.918 908.944 84.9202C909.04 84.9226 909.134 84.9443 909.221 84.9844C909.308 85.0242 909.386 85.0813 909.45 85.1521C909.514 85.2231 909.563 85.3062 909.594 85.3967C909.625 85.4871 909.637 85.5828 909.63 85.6782C909.59 87.2446 909.06 88.759 908.114 90.0078C908.02 90.1306 907.889 90.2195 907.74 90.2612L907.756 90.2566ZM908.241 82.2266C908.062 82.28 907.87 82.2605 907.706 82.1721C907.541 82.084 907.418 81.9341 907.364 81.7556L906.157 77.7161C906.104 77.5369 906.124 77.3438 906.212 77.179C906.301 77.0144 906.452 76.8918 906.631 76.8384C906.811 76.7849 907.004 76.8047 907.168 76.8936C907.333 76.9824 907.456 77.1331 907.509 77.3123L908.719 81.3613C908.745 81.4512 908.753 81.5454 908.743 81.6387C908.732 81.7317 908.704 81.822 908.658 81.9038C908.612 81.9856 908.551 82.0576 908.477 82.1155C908.403 82.1733 908.319 82.2158 908.229 82.2405L908.241 82.2266ZM900.987 57.9424C900.808 57.9956 900.615 57.9761 900.451 57.8879C900.287 57.7996 900.164 57.6499 900.11 57.4714L898.903 53.4319C898.85 53.2527 898.869 53.0593 898.958 52.8948C899.047 52.7302 899.198 52.6077 899.377 52.5542C899.556 52.5005 899.75 52.5203 899.914 52.6094C900.079 52.6982 900.201 52.8489 900.255 53.0281L901.464 57.0769C901.491 57.167 901.499 57.2612 901.488 57.3542C901.478 57.4475 901.449 57.5376 901.403 57.6194C901.358 57.7014 901.296 57.7734 901.223 57.8311C901.149 57.8889 901.064 57.9314 900.974 57.9563L900.987 57.9424ZM897.689 50.2959C897.573 50.3313 897.449 50.3359 897.331 50.3092C897.212 50.2825 897.102 50.2255 897.012 50.1436C896.07 49.2915 894.885 48.7552 893.623 48.6099C893.449 48.5762 893.294 48.4781 893.188 48.3352C893.083 48.1924 893.036 48.015 893.056 47.8387C893.076 47.6625 893.161 47.5001 893.295 47.384C893.429 47.2679 893.602 47.2067 893.78 47.2123C895.336 47.3916 896.798 48.0529 897.961 49.1036C898.054 49.1873 898.123 49.2939 898.161 49.4131C898.199 49.5321 898.204 49.6591 898.176 49.7809C898.149 49.9026 898.089 50.0149 898.003 50.106C897.918 50.197 897.81 50.2637 897.69 50.299L897.689 50.2959ZM889.765 49.2726L885.719 50.4812C885.629 50.5151 885.532 50.53 885.436 50.525C885.339 50.52 885.245 50.4952 885.158 50.4523C885.072 50.4092 884.995 50.3489 884.933 50.2749C884.871 50.201 884.824 50.1151 884.796 50.0225C884.769 49.9299 884.76 49.8325 884.772 49.7366C884.784 49.6406 884.814 49.5481 884.863 49.4646C884.912 49.3812 884.978 49.3086 885.056 49.2516C885.133 49.1945 885.222 49.1539 885.316 49.1326L889.362 47.924C889.453 47.8901 889.549 47.8752 889.646 47.8802C889.743 47.8853 889.837 47.9099 889.923 47.953C890.01 47.996 890.087 48.0564 890.149 48.1302C890.211 48.2042 890.258 48.2902 890.286 48.3827C890.313 48.4753 890.321 48.5726 890.31 48.6686C890.298 48.7646 890.268 48.8572 890.219 48.9406C890.17 49.024 890.104 49.0966 890.026 49.1537C889.948 49.2108 889.859 49.2513 889.765 49.2726ZM881.67 51.6908L877.64 52.8948C877.55 52.9287 877.453 52.9436 877.356 52.9385C877.26 52.9336 877.166 52.9087 877.079 52.8657C876.993 52.8228 876.916 52.7625 876.854 52.6885C876.791 52.6145 876.745 52.5286 876.717 52.436C876.689 52.3433 876.681 52.2461 876.693 52.1501C876.704 52.0542 876.735 51.9615 876.784 51.8782C876.833 51.7947 876.898 51.7222 876.976 51.665C877.054 51.6079 877.143 51.5675 877.237 51.5461L881.268 50.3422C881.358 50.3082 881.455 50.2933 881.551 50.2983C881.648 50.3033 881.742 50.3281 881.829 50.3711C881.916 50.4142 881.992 50.4745 882.054 50.5485C882.117 50.6223 882.163 50.7083 882.191 50.8009C882.218 50.8936 882.227 50.9908 882.215 51.0868C882.204 51.1827 882.172 51.2753 882.124 51.3588C882.075 51.4421 882.01 51.5148 881.932 51.5718C881.854 51.6289 881.765 51.6694 881.67 51.6908ZM873.576 54.1089L869.53 55.3174C869.439 55.3513 869.343 55.3662 869.247 55.3613C869.15 55.3562 869.055 55.3315 868.969 55.2886C868.882 55.2456 868.806 55.1851 868.743 55.1113C868.681 55.0374 868.635 54.9514 868.607 54.8586C868.579 54.7661 868.571 54.6689 868.583 54.573C868.594 54.4768 868.625 54.3843 868.674 54.3008C868.723 54.2175 868.788 54.145 868.866 54.0879C868.944 54.0308 869.033 53.9902 869.127 53.969L873.173 52.7603C873.264 52.7263 873.36 52.7114 873.457 52.7166C873.553 52.7214 873.647 52.7463 873.734 52.7893C873.821 52.8323 873.897 52.8926 873.959 52.9666C874.022 53.0405 874.068 53.1265 874.096 53.219C874.124 53.3115 874.132 53.4089 874.121 53.5049C874.109 53.6008 874.078 53.6934 874.029 53.7769C873.98 53.8604 873.915 53.9329 873.837 53.99C873.759 54.0471 873.67 54.0876 873.576 54.1089ZM865.481 56.5271L861.451 57.731C861.36 57.7649 861.264 57.7798 861.167 57.7749C861.071 57.7698 860.976 57.7451 860.89 57.7021C860.803 57.6589 860.726 57.5986 860.664 57.5247C860.602 57.4509 860.555 57.365 860.528 57.2722C860.5 57.1797 860.492 57.0823 860.503 56.9863C860.515 56.8904 860.546 56.7979 860.595 56.7144C860.644 56.6309 860.709 56.5583 860.787 56.5012C860.865 56.4441 860.954 56.4038 861.048 56.3823L865.078 55.1785C865.168 55.1445 865.265 55.1296 865.362 55.1345C865.458 55.1396 865.553 55.1643 865.639 55.2075C865.726 55.2505 865.803 55.3108 865.865 55.3848C865.927 55.4587 865.974 55.5447 866.001 55.6372C866.029 55.7297 866.037 55.8271 866.026 55.9231C866.014 56.019 865.983 56.1116 865.934 56.1951C865.886 56.2786 865.82 56.3511 865.742 56.4082C865.664 56.4653 865.575 56.5056 865.481 56.5271ZM857.386 58.9451L853.356 60.1492C853.266 60.1831 853.169 60.198 853.072 60.1929C852.976 60.188 852.881 60.1631 852.795 60.1201C852.708 60.0771 852.631 60.0168 852.569 59.9429C852.507 59.8689 852.46 59.783 852.433 59.6904C852.405 59.5979 852.397 59.5005 852.408 59.4045C852.42 59.3086 852.451 59.2161 852.5 59.1326C852.549 59.0491 852.614 58.9766 852.692 58.9194C852.77 58.8623 852.859 58.8218 852.953 58.8005L856.983 57.5967C857.074 57.5627 857.17 57.5479 857.267 57.5527C857.363 57.5579 857.458 57.5825 857.544 57.6255C857.631 57.6685 857.708 57.729 857.77 57.8027C857.833 57.8767 857.879 57.9626 857.906 58.0554C857.934 58.1479 857.942 58.2451 857.931 58.3411C857.919 58.4373 857.888 58.5298 857.839 58.6133C857.791 58.6965 857.726 58.769 857.647 58.8262C857.569 58.8833 857.48 58.9238 857.386 58.9451ZM849.292 61.3633L845.261 62.5674C845.171 62.6011 845.074 62.616 844.978 62.6111C844.881 62.6062 844.787 62.5813 844.7 62.5383C844.614 62.4954 844.537 62.4351 844.475 62.3611C844.412 62.2871 844.366 62.2012 844.338 62.1086C844.311 62.0159 844.302 61.9187 844.313 61.8228C844.325 61.7268 844.356 61.634 844.405 61.5508C844.454 61.4673 844.519 61.3948 844.597 61.3376C844.675 61.2805 844.764 61.24 844.858 61.2188L848.889 60.0146C848.979 59.9807 849.076 59.9658 849.172 59.9709C849.269 59.9758 849.363 60.0007 849.45 60.0437C849.536 60.0867 849.613 60.147 849.675 60.2209C849.738 60.2949 849.784 60.3809 849.812 60.4734C849.839 60.5662 849.848 60.6633 849.836 60.7593C849.825 60.8552 849.793 60.9478 849.745 61.0312C849.696 61.1147 849.631 61.1873 849.553 61.2444C849.475 61.3015 849.386 61.342 849.292 61.3633ZM841.197 63.7815L837.167 64.9854C837.076 65.0193 836.979 65.0342 836.883 65.0293C836.786 65.0242 836.692 64.9995 836.605 64.9565C836.519 64.9133 836.442 64.853 836.38 64.7791C836.317 64.7053 836.271 64.6194 836.243 64.5266C836.216 64.4341 836.208 64.3367 836.219 64.2407C836.23 64.1448 836.262 64.0522 836.31 63.9688C836.359 63.8855 836.424 63.8127 836.502 63.7559C836.581 63.6987 836.669 63.6582 836.764 63.6367L840.794 62.4329C840.884 62.3989 840.981 62.384 841.078 62.3892C841.174 62.394 841.269 62.4187 841.355 62.4619C841.441 62.5049 841.519 62.5652 841.581 62.6392C841.643 62.7131 841.689 62.7991 841.717 62.8916C841.745 62.9841 841.753 63.0815 841.741 63.1775C841.73 63.2734 841.699 63.366 841.65 63.4495C841.601 63.533 841.536 63.6055 841.458 63.6626C841.38 63.7197 841.291 63.76 841.197 63.7815Z" fill="#8CE0FF" fill-opacity="1.000000" fill-rule="nonzero"/>
			<path id="Vector" d="M894.396 63.7209L906.89 59.9888C907.64 59.7644 908.449 59.8477 909.139 60.2197C909.828 60.592 910.341 61.2229 910.565 61.9736L912.875 69.7056C913.1 70.4563 913.017 71.2654 912.644 71.9548C912.272 72.6443 911.641 73.1575 910.89 73.3818L898.396 77.114C896.999 77.5317 895.492 77.3767 894.208 76.6836C892.925 75.9905 891.969 74.8159 891.551 73.418L890.706 70.5876C890.289 69.1897 890.443 67.6833 891.136 66.3997C891.83 65.116 893.004 64.1602 894.402 63.7427L894.396 63.7209Z" fill="#0091C7" fill-opacity="1.000000" fill-rule="nonzero"/>
			<path id="Vector" d="M902.927 68.1924C903.45 69.9424 902.456 71.7847 900.706 72.3074C898.956 72.8301 897.113 71.8354 896.59 70.0854C896.068 68.3354 897.062 66.4932 898.812 65.9705C900.562 65.4478 902.405 66.4426 902.927 68.1924Z" fill="#0089BD" fill-opacity="1.000000" fill-rule="evenodd"/>
			<path id="Vector" d="M899.135 65.1897C900.946 64.9539 902.605 66.2312 902.841 68.0422C903.076 69.8533 901.799 71.5125 899.988 71.748C898.177 71.9836 896.518 70.7065 896.282 68.8953C896.047 67.0842 897.324 65.4253 899.135 65.1897Z" fill="#00AEEF" fill-opacity="1.000000" fill-rule="evenodd"/>
			<path id="Vector" d="M908.722 94.2703L848.13 112.371C847.769 112.496 847.438 112.699 847.164 112.967C847.096 113.031 847.032 113.1 846.972 113.173L846.939 113.209C846.871 113.294 846.808 113.384 846.752 113.478L846.728 113.519C846.678 113.603 846.633 113.69 846.593 113.779L846.57 113.826C846.527 113.928 846.491 114.031 846.459 114.136L846.451 114.176C846.425 114.269 846.405 114.365 846.391 114.461L846.382 114.531C846.366 114.64 846.358 114.749 846.358 114.859C846.358 114.859 846.364 114.877 846.366 114.887C846.367 114.987 846.375 115.088 846.389 115.188C846.397 115.215 846.405 115.243 846.413 115.268C846.432 115.38 846.457 115.491 846.488 115.6C846.685 116.267 847.138 116.829 847.748 117.162C848.357 117.496 849.074 117.574 849.742 117.38L906.631 100.386C909.24 99.6064 911.432 97.8232 912.725 95.4282C914.018 93.033 914.307 90.2222 913.528 87.614L913.101 86.1848C913.345 87.0032 913.426 87.8618 913.338 88.7114C913.25 89.561 912.996 90.385 912.589 91.136C912.182 91.8872 911.631 92.5505 910.968 93.0884C910.304 93.6262 909.541 94.0278 908.722 94.2703Z" fill="#0091C7" fill-opacity="1.000000" fill-rule="nonzero"/>
		</g>
	</g>
</svg>
