<svg width="924.000000" height="79.000000" viewBox="0 0 924 79" fill="none" xmlns="http://www.w3.org/2000/svg" xmlns:xlink="http://www.w3.org/1999/xlink">
	<desc>
			Created with Pixso.
	</desc>
	<defs>
		<filter id="filter_1089_7835_dd" x="0.000000" y="0.000000" width="924.000000" height="79.000000" filterUnits="userSpaceOnUse" color-interpolation-filters="sRGB">
			<feFlood flood-opacity="0" result="BackgroundImageFix"/>
			<feColorMatrix in="SourceAlpha" type="matrix" values="0 0 0 0 0 0 0 0 0 0 0 0 0 0 0 0 0 0 127 0" result="hardAlpha"/>
			<feOffset dx="0" dy="4"/>
			<feGaussianBlur stdDeviation="3"/>
			<feComposite in2="hardAlpha" operator="out" k2="-1" k3="1"/>
			<feColorMatrix type="matrix" values="0 0 0 0 0 0 0 0 0 0 0 0 0 0 0 0 0 0 0.031 0"/>
			<feBlend mode="normal" in2="BackgroundImageFix" result="effect_dropShadow_1"/>
			<feBlend mode="normal" in="SourceGraphic" in2="effect_dropShadow_1" result="shape"/>
		</filter>
		<clipPath id="clip1089_7837">
			<rect id="payme_01 1" width="60.585365" height="18.000000" transform="translate(432.000000 27.000000)" fill="white" fill-opacity="0"/>
		</clipPath>
		<linearGradient id="paint_linear_1089_7842_0" x1="501.941864" y1="32.667179" x2="498.233826" y2="55.480103" gradientUnits="userSpaceOnUse">
			<stop offset="0.472310" stop-color="#00CCCC"/>
			<stop offset="1.000000" stop-color="#3399FF"/>
		</linearGradient>
	</defs>
	<g filter="url(#filter_1089_7835_dd)">
		<rect id="Rectangle 467" x="9.500000" y="5.500000" rx="20.000000" width="905.000000" height="60.000000" fill="#FFFFFF" fill-opacity="1.000000"/>
	</g>
	<rect id="Rectangle 467" x="9.500000" y="5.500000" rx="20.000000" width="905.000000" height="60.000000" stroke="#EDEDED" stroke-opacity="1.000000" stroke-width="1.000000"/>
	<rect id="payme_01 1" width="60.585365" height="18.000000" transform="translate(432.000000 27.000000)" fill="#FFFFFF" fill-opacity="0"/>
	<g clip-path="url(#clip1089_7837)">
		<path id="Vector" d="M492.245 34.4561C492.674 35.0818 492.717 36.0676 492.261 36.8315C491.855 37.5139 489.421 40.1326 488.628 40.9741C487.942 41.7051 487.015 42.437 486.103 42.437L467.004 42.437C464.423 42.437 464.268 41.5457 464.268 39.53L464.268 31.3545C464.268 29.2961 464.864 28.7012 466.626 28.7012L486.103 28.7012C487.015 28.7012 487.827 29.1755 488.759 30.1411C489.551 30.9607 491.916 33.9749 492.245 34.4561Z" fill="#33CCCC" fill-opacity="1.000000" fill-rule="evenodd"/>
		<path id="Vector" d="M492.245 34.4561C492.674 35.0818 492.717 36.0676 492.261 36.8315C491.855 37.5139 489.421 40.1326 488.628 40.9741C487.942 41.7051 487.015 42.437 486.103 42.437L467.004 42.437C464.423 42.437 464.268 41.5457 464.268 39.53L464.268 31.3545C464.268 29.2961 464.864 28.7012 466.626 28.7012L486.103 28.7012C487.015 28.7012 487.827 29.1755 488.759 30.1411C489.551 30.9607 491.916 33.9749 492.245 34.4561Z" fill="url(#paint_linear_1089_7842_0)" fill-opacity="1.000000" fill-rule="evenodd"/>
		<path id="Vector" d="M468.597 31.8623L468.597 31.8086C468.597 31.5457 468.576 31.2859 468.153 31.2859L466.557 31.2859C466.186 31.2859 466.162 31.4949 466.162 31.8196L466.162 33.9802C466.939 32.8484 467.801 32.3225 468.597 31.8623ZM479.305 39.6694L479.305 39.5535L479.306 39.5535L479.306 34.3533C479.306 32.1724 478.365 31.0823 476.482 31.0825C475.961 31.0774 475.448 31.2202 475.001 31.4949C474.553 31.7698 474.123 32.1541 473.71 32.6475C473.507 32.1113 473.201 31.7166 472.792 31.4629C472.382 31.2092 471.852 31.0825 471.201 31.0825C470.447 31.0825 469.571 31.3513 468.95 31.8718C468.811 32.0137 466.162 34.1375 466.162 36.3188L466.162 39.6482C466.162 39.7542 466.112 40.1558 466.554 40.1558L468.215 40.1558C468.732 40.1558 468.681 39.8113 468.681 39.6694L468.681 34.2849C468.962 33.906 469.535 32.97 470.466 32.97C470.823 32.97 471.081 33.093 471.238 33.3394C471.395 33.5857 471.474 33.9988 471.475 34.5784L471.475 38.7842L471.473 38.7842L471.473 39.6484C471.473 39.7542 471.422 40.156 471.864 40.156L473.505 40.156C474.021 40.156 473.971 39.8113 473.971 39.6697L473.971 39.5537L473.973 39.5537L473.973 34.2852C474.273 33.906 474.873 32.9702 475.757 32.9702C476.121 32.9702 476.383 33.0933 476.544 33.3396C476.706 33.5859 476.786 33.999 476.786 34.5786L476.786 38.7844L476.784 38.7844L476.784 39.6487C476.784 39.7544 476.734 40.1562 477.176 40.1562L478.838 40.1562C479.355 40.156 479.305 39.8113 479.305 39.6694ZM488.456 37.5552C487.865 39.1743 486.45 40.0793 484.696 40.0793C482.156 40.0793 480.478 38.3162 480.478 35.6716C480.478 33.0591 482.22 31.1655 484.617 31.1655C486.988 31.1655 488.579 32.8477 488.68 35.5574C488.692 35.9036 488.593 36.2095 488.168 36.2095L482.779 36.2095C482.811 37.6626 483.499 38.4463 484.712 38.4463C485.453 38.4463 485.892 38.1211 486.273 37.4839C486.44 37.2065 486.78 37.2219 486.78 37.2219L488.168 37.2219C488.396 37.2217 488.496 37.4473 488.456 37.5552L488.456 37.5552ZM484.617 32.8467C483.609 32.8467 482.907 33.5649 482.779 34.741L486.39 34.741C486.294 33.7124 485.751 32.8467 484.617 32.8467Z" fill="#FFFFFF" fill-opacity="1.000000" fill-rule="evenodd"/>
		<path id="Vector" d="M441.92 28.7761C441.707 28.4294 441.43 28.1279 441.104 27.8882C440.779 27.6553 440.422 27.4727 440.044 27.3464C439.625 27.2073 439.191 27.1155 438.752 27.073C438.25 27.0227 437.745 26.9983 437.241 27L432.816 27C432.418 27 432.001 27.2664 432.001 27.7683L432.001 35.0762C432.562 36.2942 433.653 37.5874 434.895 38.2053L434.895 36.7559C434.895 35.9912 435.46 35.8203 435.694 35.8203L437.002 35.8203C438.804 35.8203 440.18 35.4348 441.128 34.6638C442.077 33.894 442.551 32.7505 442.551 31.2334C442.554 30.7949 442.504 30.3579 442.403 29.9319C442.302 29.5234 442.139 29.1335 441.92 28.7761ZM439.342 32.5293C439.189 32.7993 438.961 33.0173 438.688 33.1558C438.39 33.3 438.069 33.3867 437.741 33.4111C437.383 33.4436 437.014 33.46 436.633 33.46L435.39 33.46C435.086 33.46 434.895 33.2078 434.895 32.8357L434.895 29.8479C434.895 29.5129 435.109 29.3723 435.366 29.3723L436.633 29.3723C437.046 29.3723 437.433 29.3843 437.794 29.4087C438.119 29.4238 438.438 29.5022 438.735 29.6401C438.999 29.7681 439.217 29.9763 439.36 30.2361C439.511 30.5034 439.586 30.8806 439.586 31.3677C439.586 31.8621 439.505 32.2493 439.342 32.5293ZM434.895 38.6775C433.529 38.1218 432.614 37.459 432.001 36.802L432.001 40.3298C432.001 40.3298 431.951 40.9053 432.5 40.9053L434.431 40.9053C434.96 40.9053 434.895 40.3298 434.895 40.3298L434.895 38.6775L434.895 38.6775ZM462.25 30.8447L460.518 30.8447C460.166 30.8447 459.934 30.9954 459.794 31.3896C459.655 31.7842 457.818 36.9934 457.818 36.9934C457.818 36.9934 456.062 31.8918 455.924 31.4968C455.786 31.1018 455.559 30.8447 455.15 30.8447L453.558 30.8447C452.997 30.8447 452.997 31.2939 453.066 31.4722C453.123 31.6162 455.302 37.7021 456.132 40.0208C456.328 40.5681 456.406 40.7329 456.412 40.9355C456.418 41.1384 456.215 41.5642 456.076 41.8086C456.011 41.9199 455.938 42.0256 455.855 42.124C457.483 41.6274 459.359 39.8262 460.329 37.875C461.288 35.1555 462.553 31.563 462.608 31.3792C462.696 31.0815 462.695 30.8447 462.25 30.8447ZM454.601 42.6414C454.451 42.6387 454.3 42.6277 454.151 42.6084C453.969 42.5837 453.627 42.6184 453.627 42.9233L453.627 44.2859C453.627 44.8057 453.871 44.8406 454.005 44.8713C454.41 44.957 454.822 44.9976 455.235 44.9922C455.782 44.9922 456.258 44.8909 456.664 44.688C457.072 44.4819 457.437 44.1943 457.735 43.8425C458.064 43.4509 458.343 43.0176 458.563 42.5535C458.805 42.0547 459.037 41.5054 459.259 40.9053C459.259 40.9053 459.355 40.634 459.512 40.1897C459.034 40.6812 456.782 42.8567 454.601 42.6414ZM452 32.4619C451.905 32.2344 451.777 32.0229 451.619 31.8357C451.461 31.656 451.281 31.4983 451.083 31.3672C450.868 31.2253 450.641 31.1052 450.404 31.0083C450.162 30.9119 449.914 30.8347 449.66 30.7773C449.372 30.7131 449.079 30.6704 448.785 30.6497C448.467 30.6255 448.109 30.6133 447.713 30.6133C445.088 30.6133 443.594 31.458 443.229 33.1479C443.111 33.6721 443.621 33.7031 443.621 33.7031L445.235 33.7031C445.656 33.7031 445.638 33.5647 445.843 33.1765C445.917 32.9651 446.049 32.7805 446.224 32.6448C446.534 32.4016 446.999 32.28 447.617 32.28C448.213 32.28 448.646 32.3975 448.916 32.6323C449.185 32.8674 449.344 33.2241 449.392 33.7031C449.392 34.2583 449.222 34.6287 448.562 34.6287C446.956 34.5693 445.23 34.7544 444.258 35.3223C443.285 35.8901 442.736 37.0002 442.736 38.1924C442.736 38.6787 442.821 39.1045 442.992 39.4697C443.157 39.8279 443.402 40.1423 443.707 40.3879C444.03 40.6448 444.4 40.833 444.796 40.9417C445.246 41.0671 445.71 41.1289 446.177 41.1245C446.875 41.1245 447.493 41.0352 448.029 40.8567C448.564 40.6785 449.394 40.0911 449.499 40.0054L449.499 40.3184C449.499 40.6289 449.592 40.9055 449.956 40.9055L451.833 40.9055C452.213 40.9055 452.297 40.6289 452.297 40.2881L452.297 34.3967C452.301 34.0305 452.277 33.6646 452.226 33.302C452.186 33.0134 452.109 32.7312 452 32.4619ZM449.439 38.2383C449.439 38.2383 448.955 39.2642 447.225 39.2642C446.749 39.2642 446.361 39.1548 446.063 38.9358C445.766 38.717 445.617 38.3762 445.617 37.9141C445.617 37.3135 445.859 36.8894 446.343 36.6421C446.828 36.395 447.796 36.2539 448.522 36.2712C449.249 36.2886 449.439 36.7559 449.439 37.0786L449.439 38.2385L449.439 38.2383Z" fill="#333333" fill-opacity="1.000000" fill-rule="evenodd"/>
	</g>
</svg>
