<svg width="16.000000" height="16.000000" viewBox="0 0 16 16" fill="none" xmlns="http://www.w3.org/2000/svg" xmlns:xlink="http://www.w3.org/1999/xlink">
	<desc>
			Created with Pixso.
	</desc>
	<defs>
		<clipPath id="clip3_7366">
			<rect id="right-chevron (1) 1" width="16.000000" height="16.000000" fill="white" fill-opacity="0"/>
		</clipPath>
	</defs>
	<rect id="right-chevron (1) 1" width="16.000000" height="16.000000" fill="#FFFFFF" fill-opacity="0"/>
	<g clip-path="url(#clip3_7366)">
		<path id="Vector" d="M7.5705 11.177L1.5705 5.84375C1.43805 5.72705 1.3573 5.5625 1.34607 5.38623C1.33484 5.20996 1.39392 5.03638 1.5105 4.90381C1.62726 4.77124 1.79187 4.69067 1.96808 4.67944C2.14429 4.66797 2.31781 4.72729 2.4505 4.84375L8.0105 9.78369L13.5705 4.84375C13.7043 4.73608 13.8745 4.68408 14.0457 4.69873C14.2168 4.71338 14.3757 4.79346 14.4891 4.92261C14.6026 5.05151 14.6619 5.21924 14.6547 5.39087C14.6475 5.5625 14.5743 5.72485 14.4505 5.84375L8.4505 11.177C8.3288 11.2839 8.17242 11.343 8.0105 11.343C7.84857 11.343 7.69214 11.2839 7.5705 11.177Z" fill="#3F51B5" fill-opacity="1.000000" fill-rule="nonzero"/>
	</g>
</svg>
