<svg width="196.000000" height="32.000000" viewBox="0 0 196 32" fill="none" xmlns="http://www.w3.org/2000/svg" xmlns:xlink="http://www.w3.org/1999/xlink">
	<desc>
			Created with Pixso.
	</desc>
	<defs>
		<clipPath id="clip1028_3300">
			<rect id="right-chevron (1) 1" width="16.000000" height="16.000000" transform="translate(172.000000 8.000000)" fill="white" fill-opacity="0"/>
		</clipPath>
		<clipPath id="clip1028_3305">
			<rect id="right-chevron (1) 1" width="16.000000" height="16.000000" transform="translate(8.000000 8.000000)" fill="white" fill-opacity="0"/>
		</clipPath>
	</defs>
	<circle id="dot" cx="63.500000" cy="15.500000" r="4.500000" fill="#3F51B5" fill-opacity="1.000000"/>
	<circle id="dot" cx="113.500000" cy="15.500000" r="4.500000" fill="#EEF4FF" fill-opacity="1.000000"/>
	<circle id="dot" cx="88.500000" cy="15.500000" r="4.500000" fill="#EEF4FF" fill-opacity="1.000000"/>
	<circle id="dot" cx="138.500000" cy="15.500000" r="4.500000" fill="#EEF4FF" fill-opacity="1.000000"/>
	<circle id="background" cx="180.000000" cy="16.000000" r="16.000000" fill="#EEF4FF" fill-opacity="1.000000"/>
	<rect id="right-chevron (1) 1" width="16.000000" height="16.000000" transform="translate(172.000000 8.000000)" fill="#FFFFFF" fill-opacity="0"/>
	<g clip-path="url(#clip1028_3300)">
		<path id="Vector" d="M183.167 16.4402L177.833 22.4402C177.717 22.5725 177.552 22.6533 177.376 22.6646C177.2 22.6758 177.026 22.6167 176.893 22.5C176.761 22.3833 176.68 22.2188 176.669 22.0425C176.658 21.8662 176.717 21.6929 176.833 21.5601L181.773 16L176.833 10.4402C176.726 10.3064 176.674 10.136 176.688 9.96484C176.703 9.7937 176.783 9.63501 176.912 9.52148C177.041 9.40796 177.209 9.34863 177.381 9.35571C177.552 9.36304 177.715 9.43628 177.833 9.56006L183.167 15.5601C183.274 15.6816 183.333 15.8381 183.333 16C183.333 16.1621 183.274 16.3184 183.167 16.4402Z" fill="#3F51B5" fill-opacity="1.000000" fill-rule="nonzero"/>
	</g>
	<circle id="background" cx="16.000000" cy="16.000000" r="16.000000" fill="#EEF4FF" fill-opacity="1.000000"/>
	<rect id="right-chevron (1) 1" width="16.000000" height="16.000000" transform="translate(8.000000 8.000000)" fill="#FFFFFF" fill-opacity="0"/>
	<g clip-path="url(#clip1028_3305)">
		<path id="Vector" d="M12.8334 16.4402L18.1667 22.4402C18.2835 22.5725 18.4481 22.6533 18.6243 22.6646C18.8006 22.6758 18.9741 22.6167 19.1068 22.5C19.2392 22.3833 19.3199 22.2188 19.3312 22.0425C19.3424 21.8662 19.2833 21.6929 19.1667 21.5601L14.2268 16L19.1667 10.4402C19.2745 10.3064 19.3264 10.136 19.3118 9.96484C19.2971 9.7937 19.2169 9.63501 19.088 9.52148C18.959 9.40796 18.7912 9.34863 18.6196 9.35571C18.448 9.36304 18.2857 9.43628 18.1667 9.56006L12.8334 15.5601C12.7265 15.6816 12.6676 15.8381 12.6676 16C12.6676 16.1621 12.7265 16.3184 12.8334 16.4402Z" fill="#3F51B5" fill-opacity="1.000000" fill-rule="nonzero"/>
	</g>
</svg>
