<svg width="216.000000" height="24.000000" viewBox="0 0 216 24" fill="none" xmlns="http://www.w3.org/2000/svg" xmlns:xlink="http://www.w3.org/1999/xlink">
	<desc>
			Created with Pixso.
	</desc>
	<defs>
		<clipPath id="clip12_5358">
			<rect id="Facebook" width="24.000000" height="24.000000" fill="white" fill-opacity="0"/>
		</clipPath>
		<clipPath id="clip12_5363">
			<rect id="Telegram" width="24.000000" height="24.000000" transform="translate(144.000000 0.000000)" fill="white" fill-opacity="0"/>
		</clipPath>
		<clipPath id="clip12_5367">
			<rect id="YouTube" width="24.000000" height="24.000000" transform="translate(48.000000 0.000000)" fill="white" fill-opacity="0"/>
		</clipPath>
		<clipPath id="clip12_5376">
			<rect id="Instagram" width="24.000000" height="24.000000" transform="translate(192.000000 0.000000)" fill="white" fill-opacity="0"/>
		</clipPath>
	</defs>
	<rect id="Facebook" width="24.000000" height="24.000000" fill="#FFFFFF" fill-opacity="0"/>
	<g clip-path="url(#clip12_5358)">
		<path id="Subtract" d="M24 12C24 5.37256 18.6274 0 12 0C5.37256 0 0 5.37256 0 12C0 17.9895 4.38818 22.954 10.125 23.8542L10.125 15.4688L7.07812 15.4688L7.07812 12L10.125 12L10.125 9.3562C10.125 9.16821 10.132 8.9856 10.1458 8.80823C10.2048 8.04883 10.3884 7.38721 10.6803 6.82947C11.4111 5.43311 12.8213 4.6875 14.6576 4.6875C15.9705 4.6875 17.3438 4.92188 17.3438 4.92188L17.3438 7.875L15.8306 7.875C14.34 7.875 13.875 8.80103 13.875 9.75L13.875 12L17.2031 12L16.6711 15.4688L13.875 15.4688L13.875 23.8542C19.6118 22.954 24 17.9895 24 12Z" clip-rule="evenodd" fill="#FFFFFF" fill-opacity="1.000000" fill-rule="evenodd"/>
	</g>
	<rect id="Telegram" width="24.000000" height="24.000000" transform="translate(144.000000 0.000000)" fill="#FFFFFF" fill-opacity="0"/>
	<g clip-path="url(#clip12_5363)">
		<path id="Subtract" d="M156 24C162.627 24 168 18.6274 168 12C168 5.37256 162.627 0 156 0C149.373 0 144 5.37256 144 12C144 18.6274 149.373 24 156 24ZM156.43 8.85913Q154.679 9.58728 149.432 11.8735C148.864 12.0994 148.566 12.3203 148.539 12.5365C148.493 12.9016 148.951 13.0454 149.573 13.2413C149.658 13.2679 149.746 13.2955 149.836 13.3247C150.449 13.5239 151.273 13.757 151.701 13.7662C152.09 13.7745 152.524 13.6144 153.003 13.2855Q157.905 9.97595 158.064 9.93994C158.139 9.92297 158.243 9.90161 158.313 9.96399C158.383 10.0264 158.376 10.1445 158.369 10.1761C158.309 10.4294 155.239 13.2223 155.062 13.4058C154.968 13.5035 154.872 13.5959 154.78 13.6848C154.211 14.2335 153.784 14.645 154.804 15.3169C155.829 15.9926 156.425 16.4235 157.482 17.1158C157.622 17.2079 157.756 17.3035 157.887 17.3967C158.384 17.7511 158.831 18.0696 159.383 18.0188C159.703 17.9893 160.034 17.6877 160.203 16.7885C160.6 14.6633 161.382 10.0586 161.562 8.16113C161.578 7.99487 161.558 7.7821 161.542 7.68872C161.526 7.59534 161.493 7.46228 161.371 7.36377C161.228 7.24707 161.006 7.22253 160.906 7.22424C160.455 7.23218 159.763 7.47302 156.43 8.85913Z" clip-rule="evenodd" fill="#FFFFFF" fill-opacity="1.000000" fill-rule="evenodd"/>
	</g>
	<rect id="YouTube" width="24.000000" height="24.000000" transform="translate(48.000000 0.000000)" fill="#FFFFFF" fill-opacity="0"/>
	<g clip-path="url(#clip12_5367)">
		<path id="Subtract" d="M71.522 6.18542C71.3863 5.6748 71.1189 5.20886 70.7465 4.83411C70.3741 4.45935 69.9099 4.18896 69.4001 4.04993C67.5238 3.54541 60.0238 3.54541 60.0238 3.54541C60.0238 3.54541 52.5238 3.54541 50.6475 4.04993C50.1378 4.18896 49.6735 4.45935 49.3011 4.83411C48.9287 5.20886 48.6613 5.6748 48.5256 6.18542C48.0238 8.06995 48.0238 12 48.0238 12C48.0238 12 48.0238 15.9299 48.5256 17.8145C48.6613 18.3251 48.9287 18.7911 49.3011 19.1659C49.6735 19.5406 50.1378 19.811 50.6475 19.95C52.5238 20.4545 60.0238 20.4545 60.0238 20.4545C60.0238 20.4545 67.5238 20.4545 69.4001 19.95C69.9099 19.811 70.3741 19.5406 70.7465 19.1659C71.1189 18.7911 71.3863 18.3251 71.522 17.8145C72.0238 15.9299 72.0238 12 72.0238 12C72.0238 12 72.0238 8.06995 71.522 6.18542ZM63.842 12L57.5693 8.43127L57.5693 15.5686L63.842 12Z" clip-rule="evenodd" fill="#FFFFFF" fill-opacity="1.000000" fill-rule="evenodd"/>
	</g>
	<rect id="TikTok" width="24.000000" height="24.000000" transform="translate(96.000000 0.000000)" fill="#FFFFFF" fill-opacity="0"/>
	<path id="Vector" d="M112.026 7.70337C113.57 8.81042 115.461 9.46179 117.503 9.46179L117.503 6.35779C116.363 6.11414 115.354 5.51636 114.595 4.68494C113.297 3.87183 112.361 2.53015 112.087 0.959961L109.224 0.959961L109.224 16.7106C109.218 18.5468 107.733 20.0336 105.902 20.0336C104.823 20.0336 103.864 19.5175 103.257 18.7178C102.173 18.1687 101.429 17.0413 101.429 15.7394C101.429 13.8981 102.917 12.4053 104.752 12.4053C105.103 12.4053 105.442 12.4602 105.76 12.5614L105.76 9.42334C101.819 9.50513 98.6499 12.7365 98.6499 16.7107C98.6499 18.6946 99.4391 20.493 100.72 21.8071C101.876 22.5858 103.267 23.04 104.763 23.04C108.775 23.04 112.027 19.7765 112.027 15.7509L112.027 7.70337L112.026 7.70337Z" fill="#F5F5F5" fill-opacity="1.000000" fill-rule="nonzero"/>
	<path id="Vector" d="M117.503 6.35779L117.503 5.51843C116.475 5.52002 115.467 5.2312 114.595 4.68494C115.367 5.53308 116.384 6.11792 117.503 6.35779ZM112.087 0.959961C112.061 0.809937 112.04 0.658813 112.026 0.507202L112.026 0L108.074 0L108.074 15.7509C108.068 17.5868 106.583 19.0736 104.752 19.0736C104.214 19.0736 103.706 18.9454 103.257 18.7179C103.864 19.5175 104.823 20.0336 105.902 20.0336C107.733 20.0336 109.218 18.5469 109.224 16.7107L109.224 0.959961L112.087 0.959961ZM105.76 9.42346L105.76 8.52991C105.43 8.48462 105.097 8.46191 104.764 8.46204C100.752 8.46191 97.5 11.7253 97.5 15.7509C97.5 18.2745 98.7781 20.4987 100.72 21.807C99.4392 20.493 98.65 18.6945 98.65 16.7107C98.65 12.7366 101.819 9.50513 105.76 9.42346Z" fill="#FFFFFF" fill-opacity="1.000000" fill-rule="nonzero"/>
	<rect id="Instagram" width="24.000000" height="24.000000" transform="translate(192.000000 0.000000)" fill="#FFFFFF" fill-opacity="0"/>
	<g clip-path="url(#clip12_5376)">
		<path id="Vector" d="M204 2.16089C207.206 2.16089 207.586 2.17505 208.847 2.2312C210.019 2.28284 210.652 2.47974 211.073 2.6438C211.631 2.85938 212.034 3.12183 212.452 3.53906C212.873 3.96094 213.131 4.35938 213.347 4.91724C213.511 5.33911 213.708 5.97656 213.759 7.1438C213.816 8.40942 213.83 8.78906 213.83 11.9906C213.83 15.1969 213.816 15.5765 213.759 16.8375C213.708 18.0094 213.511 18.6422 213.347 19.0641C213.131 19.6218 212.869 20.025 212.452 20.4421C212.03 20.864 211.631 21.1218 211.073 21.3375C210.652 21.5016 210.014 21.6985 208.847 21.75C207.581 21.8063 207.202 21.8203 204 21.8203C200.794 21.8203 200.414 21.8063 199.153 21.75C197.981 21.6985 197.348 21.5016 196.927 21.3375C196.369 21.1218 195.966 20.8594 195.548 20.4421C195.127 20.0203 194.869 19.6218 194.653 19.0641C194.489 18.6422 194.292 18.0046 194.241 16.8375C194.184 15.5719 194.17 15.1921 194.17 11.9906C194.17 8.78442 194.184 8.40466 194.241 7.1438C194.292 5.97192 194.489 5.33911 194.653 4.91724C194.869 4.35938 195.131 3.9563 195.548 3.53906C195.97 3.11719 196.369 2.85938 196.927 2.6438C197.348 2.47974 197.986 2.28284 199.153 2.2312C200.414 2.17505 200.794 2.16089 204 2.16089ZM204 0C200.742 0 200.334 0.0140381 199.055 0.0703125C197.78 0.126587 196.903 0.332764 196.144 0.628174C195.352 0.9375 194.681 1.34534 194.016 2.01562C193.345 2.68127 192.938 3.35156 192.628 4.13904C192.333 4.90308 192.127 5.77502 192.07 7.05005C192.014 8.33435 192 8.74219 192 12C192 15.2578 192.014 15.6656 192.07 16.9453C192.127 18.2203 192.333 19.0969 192.628 19.8562C192.938 20.6484 193.345 21.3187 194.016 21.9844C194.681 22.65 195.352 23.0625 196.139 23.3672C196.903 23.6625 197.775 23.8688 199.05 23.925C200.33 23.9812 200.737 23.9954 203.995 23.9954C207.253 23.9954 207.661 23.9812 208.941 23.925C210.216 23.8688 211.092 23.6625 211.852 23.3672C212.639 23.0625 213.309 22.65 213.975 21.9844C214.641 21.3187 215.053 20.6484 215.358 19.861C215.653 19.0969 215.859 18.225 215.916 16.95C215.972 15.6703 215.986 15.2625 215.986 12.0046C215.986 8.74683 215.972 8.33911 215.916 7.05933C215.859 5.78442 215.653 4.90784 215.358 4.14844C215.062 3.35156 214.655 2.68127 213.984 2.01562C213.319 1.34998 212.648 0.9375 211.861 0.632812C211.097 0.337524 210.225 0.131226 208.95 0.0749512C207.666 0.0140381 207.258 0 204 0Z" fill="#FFFFFF" fill-opacity="1.000000" fill-rule="nonzero"/>
		<path id="Vector" d="M204 5.83594C200.597 5.83594 197.836 8.59692 197.836 12C197.836 15.4031 200.597 18.1641 204 18.1641C207.403 18.1641 210.164 15.4031 210.164 12C210.164 8.59692 207.403 5.83594 204 5.83594ZM204 15.9984C201.792 15.9984 200.002 14.2078 200.002 12C200.002 9.79224 201.792 8.00159 204 8.00159C206.208 8.00159 207.998 9.79224 207.998 12C207.998 14.2078 206.208 15.9984 204 15.9984Z" fill="#FFFFFF" fill-opacity="1.000000" fill-rule="nonzero"/>
		<path id="Vector" d="M211.847 5.59216C211.847 6.38904 211.2 7.03125 210.408 7.03125C209.611 7.03125 208.969 6.38428 208.969 5.59216C208.969 4.79529 209.616 4.15308 210.408 4.15308C211.2 4.15308 211.847 4.79993 211.847 5.59216Z" fill="#FFFFFF" fill-opacity="1.000000" fill-rule="nonzero"/>
	</g>
</svg>
